<svg width="159" height="55" viewBox="0 0 159 55" fill="none" xmlns="http://www.w3.org/2000/svg">
<g clip-path="url(#clip0_56_556)">
<mask id="mask0_56_556" style="mask-type:luminance" maskUnits="userSpaceOnUse" x="-55" y="-76" width="305" height="208">
<path d="M-55 -75.9998H249.023V131.332H-55V-75.9998Z" fill="white"/>
</mask>
<g mask="url(#mask0_56_556)">
<path d="M144.496 22.3467C144.496 21.4345 144.35 20.6257 144.056 19.9201C143.768 19.2294 143.334 18.6244 142.756 18.1051C142.169 17.5789 141.483 17.1842 140.696 16.9216C139.887 16.6513 138.955 16.5162 137.901 16.5162H136.52V28.1771H137.901C139.067 28.1771 140.077 28.0277 140.932 27.7292C141.754 27.4422 142.442 27.0152 142.996 26.4482C143 26.4451 143.003 26.4419 143.006 26.4388C143.499 25.9355 143.869 25.3532 144.116 24.6914C144.369 24.0098 144.496 23.2282 144.496 22.3467ZM116.467 31.3741H114.96C114.428 31.3741 113.995 30.9687 113.974 30.4612L112.814 21.8145L108.101 31.4692C107.868 31.9439 107.281 32.147 106.789 31.923C106.573 31.8248 106.411 31.6604 106.317 31.4671L101.605 21.8145L100.435 30.5407C100.372 31.0206 99.9481 31.371 99.4591 31.3703V31.3741H97.9521C97.4069 31.3741 96.9648 30.9475 96.9648 30.4215C96.9648 30.3526 96.9724 30.285 96.9872 30.2202L99.2489 13.4951C99.3193 12.9754 99.813 12.609 100.352 12.6769C100.71 12.7219 100.999 12.9476 101.13 13.2468L107.209 25.7763L113.303 13.2161C113.533 12.7417 114.119 12.5369 114.611 12.7588C114.927 12.9012 115.128 13.1848 115.17 13.4954L115.17 13.4951L117.443 30.2989C117.513 30.8186 117.133 31.2951 116.594 31.363C116.552 31.3682 116.509 31.371 116.467 31.371V31.3741ZM129.504 31.3741H120.534C119.989 31.3741 119.547 30.9475 119.547 30.4215V14.2718C119.547 13.7459 119.989 13.3192 120.534 13.3192H129.504C130.05 13.3192 130.492 13.7459 130.492 14.2718V15.5636C130.492 16.0895 130.05 16.5162 129.504 16.5162H123.148V19.7794H129.241C129.787 19.7794 130.229 20.2057 130.229 20.7316V22.0238C130.229 22.5497 129.787 22.976 129.241 22.976H123.148V28.1771H129.504C130.05 28.1771 130.492 28.6038 130.492 29.1297V30.4215C130.492 30.9475 130.05 31.3741 129.504 31.3741ZM148.194 22.3467C148.194 24.6527 147.469 26.6258 146.02 28.2666L146.021 28.267C145.102 29.3087 143.966 30.0903 142.611 30.611C141.289 31.1199 139.774 31.3741 138.069 31.3741H133.906C133.361 31.3741 132.919 30.9475 132.919 30.4215V14.2718C132.919 13.7459 133.361 13.3192 133.906 13.3192H138.069C139.622 13.3192 141.023 13.5372 142.273 13.973C143.545 14.4163 144.647 15.0833 145.58 15.9746C146.452 16.807 147.107 17.7603 147.544 18.8341C147.977 19.8975 148.194 21.0684 148.194 22.3467Z" fill="#6AC62F"/>
<path d="M95.7308 14.9929L92.5493 20.0069C92.2781 20.4357 91.7115 20.5837 91.2561 20.3563L90.4624 20.0062C89.9698 19.7889 89.7521 19.2288 89.9742 18.7534L89.9724 18.7524L92.4843 13.3883C92.7079 12.9097 93.2914 12.6966 93.788 12.9122C93.8111 12.9223 93.8338 12.9334 93.8558 12.9449L95.3256 13.646C95.8135 13.8783 96.0139 14.4478 95.773 14.9183C95.76 14.9441 95.746 14.9688 95.7308 14.9929Z" fill="#00ADEF"/>
<path d="M88.868 27.6995C88.868 28.7023 88.5318 29.5782 87.8594 30.3281C87.8519 30.3368 87.8439 30.3452 87.8356 30.3535C87.3893 30.8373 86.8429 31.1995 86.1961 31.4399C85.5699 31.6729 84.8636 31.7896 84.0771 31.7896C83.6733 31.7896 83.2797 31.7481 82.8962 31.6656C82.5055 31.5813 82.1429 31.4559 81.8078 31.2894L81.8049 31.288L81.8042 31.2894C81.2925 31.0327 80.8425 30.683 80.4547 30.24C80.0824 29.8147 79.7732 29.31 79.527 28.7256C79.3294 28.2554 79.5501 27.7215 80.0206 27.5083L81.1545 26.928C81.6359 26.6835 82.2317 26.8615 82.4853 27.3261C82.5178 27.3861 82.5434 27.4481 82.5618 27.5107C82.6297 27.7054 82.7128 27.8785 82.8113 28.0301C82.906 28.1756 83.019 28.3042 83.1504 28.4156C83.1681 28.4306 83.1851 28.4463 83.2014 28.4623C83.3256 28.5609 83.461 28.6357 83.6076 28.6869C83.7806 28.7472 83.985 28.7775 84.2208 28.7775C84.6596 28.7775 84.9723 28.6765 85.1586 28.4745C85.1658 28.4665 85.1734 28.4588 85.1807 28.4511C85.3338 28.2805 85.41 28.0454 85.41 27.7455C85.41 27.3429 85.098 27.0266 84.4743 26.7974C83.9326 26.6383 83.6314 26.5498 83.569 26.531C83.3964 26.4787 83.1916 26.4147 82.9554 26.3387C82.5329 26.2029 82.1613 26.0486 81.8407 25.8758C81.4824 25.6825 81.1816 25.469 80.9393 25.2353C80.9231 25.2197 80.9079 25.204 80.8931 25.1876C80.5803 24.8811 80.3427 24.53 80.181 24.1351C80.0152 23.7297 79.9321 23.2873 79.9321 22.8084C79.9321 22.2553 80.0405 21.7447 80.2571 21.2766C80.4763 20.8033 80.7999 20.3916 81.2282 20.0412C81.637 19.7065 82.101 19.455 82.6196 19.2864C83.1234 19.1231 83.665 19.0412 84.2446 19.0412C84.6155 19.0412 84.9773 19.0789 85.3298 19.1537C85.6884 19.23 86.0192 19.3439 86.3225 19.4954C86.3442 19.5059 86.3651 19.5174 86.3857 19.5296C86.8006 19.7476 87.1729 20.0325 87.5034 20.3843C87.8345 20.7371 88.1205 21.1547 88.361 21.6378C88.5893 22.0979 88.399 22.6465 87.9367 22.884L86.8602 23.4378C86.381 23.6844 85.7852 23.5095 85.5295 23.047C85.515 23.0209 85.502 22.9944 85.4905 22.9676L85.4872 22.969C85.4147 22.8021 85.3334 22.6635 85.2435 22.5542C85.1547 22.4458 85.0525 22.3542 84.9369 22.2783C84.826 22.2055 84.7025 22.1494 84.5671 22.1108C84.4346 22.0725 84.2872 22.0537 84.1251 22.0537C83.8593 22.0537 83.6593 22.1153 83.5242 22.2393C83.4606 22.2975 83.4151 22.3584 83.3877 22.4225C83.3574 22.4929 83.3422 22.5831 83.3422 22.6931C83.3422 22.8126 83.3617 22.9059 83.4003 22.9721C83.4354 23.032 83.4971 23.087 83.5856 23.1372C83.626 23.1539 83.7596 23.2009 83.9864 23.2786C84.2865 23.3817 84.6975 23.5158 85.2193 23.6809C85.6949 23.831 86.1228 23.9978 86.5024 24.1807C86.9046 24.3747 87.2426 24.5844 87.5164 24.809C87.5294 24.8198 87.542 24.831 87.5543 24.8425C87.9829 25.1977 88.3076 25.6136 88.5282 26.0897C88.7547 26.5791 88.868 27.1154 88.868 27.6995Z" fill="#FBC707"/>
<path d="M74.6207 25.4154C74.6207 24.909 74.5495 24.4485 74.4076 24.0348C74.2693 23.6307 74.0638 23.2678 73.7919 22.946C73.5359 22.643 73.2477 22.4183 72.927 22.272C72.6085 22.1264 72.2423 22.0533 71.8285 22.0533C71.3417 22.0533 70.9178 22.1386 70.5563 22.3086C70.2013 22.4754 69.8936 22.7293 69.6333 23.07C69.3862 23.3935 69.2021 23.7453 69.08 24.1257C68.9554 24.514 68.893 24.9438 68.893 25.4154C68.893 25.9302 68.9641 26.3952 69.106 26.8107C69.2447 27.2161 69.4487 27.5769 69.7181 27.8928C69.9702 28.1885 70.2623 28.409 70.5949 28.5542C70.9351 28.703 71.3302 28.7775 71.7808 28.7775C72.2142 28.7775 72.5962 28.7075 72.9274 28.5678C73.2509 28.4316 73.5427 28.2209 73.8031 27.936C74.0696 27.6445 74.27 27.2993 74.4047 26.9009C74.5488 26.4749 74.6207 25.9796 74.6207 25.4154ZM76.9477 31.3744H75.608C75.2555 31.3744 74.946 31.1957 74.7713 30.9275C74.6651 30.994 74.556 31.0571 74.4441 31.1166C74.0302 31.3368 73.5987 31.5039 73.1491 31.6175C72.6959 31.7321 72.2398 31.7896 71.7808 31.7896C70.9329 31.7896 70.1439 31.66 69.4141 31.4012C68.6806 31.141 68.014 30.7492 67.4134 30.2254C67.4059 30.2187 67.3986 30.2121 67.3914 30.2055C66.723 29.6106 66.221 28.9071 65.8852 28.0952C65.5533 27.2927 65.3872 26.3993 65.3872 25.4154C65.3872 24.5196 65.5356 23.6917 65.8325 22.9321C66.1329 22.1634 66.5822 21.4772 67.1802 20.8733C67.7847 20.2624 68.4816 19.803 69.2703 19.4954C70.0471 19.1928 70.8997 19.0412 71.8285 19.0412C72.6096 19.0412 73.3271 19.175 73.9808 19.4425L73.9873 19.4453L73.9884 19.4425C74.1736 19.5195 74.3527 19.6072 74.525 19.7051V13.4877C74.525 12.9614 74.967 12.5351 75.5123 12.5351H76.9477C77.493 12.5351 77.935 12.9614 77.935 13.4877V30.4218C77.935 30.9477 77.493 31.3744 76.9477 31.3744Z" fill="#EC008C"/>
<path d="M62.5472 31.374H61.1121C60.5669 31.374 60.1245 30.9477 60.1245 30.4218V20.9126C60.1245 20.3867 60.5669 19.9604 61.1121 19.9604H62.5472C63.0925 19.9604 63.5345 20.3867 63.5345 20.9126V30.4218C63.5345 30.9477 63.0925 31.374 62.5472 31.374ZM63.9173 17.0173C63.9173 17.2938 63.8624 17.5568 63.7527 17.8065C63.6403 18.0618 63.4782 18.2844 63.2662 18.4742C62.852 18.8455 62.3732 19.0308 61.8297 19.0308C61.5643 19.0308 61.3068 18.9845 61.0569 18.8918C60.8092 18.7999 60.5849 18.6644 60.3849 18.4857C60.1667 18.291 60.0039 18.0646 59.8959 17.8062C59.7933 17.5603 59.7417 17.2973 59.7417 17.0173C59.7417 16.7616 59.7901 16.513 59.8861 16.2719C59.9815 16.033 60.1216 15.8167 60.3069 15.6238C60.5091 15.4134 60.7438 15.2563 61.0118 15.1522C61.2663 15.0529 61.539 15.0035 61.8297 15.0035C62.1106 15.0035 62.3757 15.0508 62.6249 15.1456C62.8881 15.2455 63.1189 15.3911 63.3171 15.5827C63.5158 15.7739 63.6667 15.9964 63.7704 16.2503C63.8682 16.4903 63.9173 16.746 63.9173 17.0173Z" fill="#F47216"/>
<path d="M58.1213 31.374H55.9445C55.635 31.374 55.3584 31.2364 55.1775 31.0212L49.4447 25.0152V30.4218C49.4447 30.9477 49.0027 31.374 48.4574 31.374H46.8306C46.2853 31.374 45.8433 30.9477 45.8433 30.4218V14.2717C45.8433 13.7458 46.2853 13.3194 46.8306 13.3194H48.4574C49.0027 13.3194 49.4447 13.7458 49.4447 14.2717V19.4118L55.2349 13.6134C55.4281 13.4194 55.6863 13.3219 55.9445 13.3219V13.3194H57.9538C58.4991 13.3194 58.9414 13.7458 58.9414 14.2717C58.9414 14.5569 58.8114 14.8126 58.606 14.9871L51.3767 22.1066L58.8389 29.7705C59.2116 30.1529 59.1928 30.7541 58.7963 31.1135C58.606 31.2863 58.3633 31.3716 58.1213 31.3716V31.374Z" fill="#00ADEF"/>
<path d="M47.6972 40.0347H49.155V37.6078H48.1424C47.9348 37.6078 47.8311 37.706 47.8311 37.9031V39.5157C47.8311 39.6808 47.7864 39.8536 47.6972 40.0347ZM49.9928 40.9928H46.9096C46.9096 41.3655 46.9038 41.5808 46.893 41.6396C46.8424 41.8949 46.6976 42.0228 46.4571 42.0228C46.0382 42.0228 45.8291 41.8124 45.8291 41.392V40.5697C45.8291 40.298 45.8955 40.1329 46.0299 40.0747C46.1469 40.0483 46.2671 40.0242 46.3899 40.003C46.5243 39.9445 46.5911 39.7818 46.5911 39.5157V37.8871C46.5911 37.4078 46.7254 37.0648 46.9934 36.8572C47.2393 36.6709 47.6188 36.5779 48.1327 36.5779H49.8169C50.0907 36.5779 50.2781 36.6681 50.3785 36.8492C50.4507 36.977 50.4868 37.1794 50.4868 37.4559V40.0347C50.8783 40.0347 51.0736 40.2182 51.0736 40.5853V41.392C51.0736 41.8124 50.8642 42.0228 50.4453 42.0228C50.2106 42.0228 50.0683 41.8921 50.0177 41.6316C50.0011 41.5623 49.9928 41.3495 49.9928 40.9928ZM52.7518 39.1723C52.7796 39.4227 52.8883 39.6143 53.0782 39.7473C53.2682 39.8804 53.4996 39.9469 53.7734 39.9469C54.0023 39.9469 54.2793 39.8766 54.6032 39.7352C54.9271 39.5941 55.1283 39.5237 55.2063 39.5237C55.5638 39.5237 55.7426 39.6913 55.7426 40.0267C55.7426 40.1545 55.6924 40.2823 55.592 40.4098C55.4129 40.6442 55.1283 40.8222 54.7372 40.9451C54.4079 41.0514 54.0641 41.1046 53.7066 41.1046C53.0363 41.1046 52.478 40.8849 52.031 40.446C51.5839 40.0068 51.3607 39.4652 51.3607 38.8212C51.3607 38.1825 51.5745 37.6367 52.0014 37.1846C52.4289 36.7322 52.9749 36.5058 53.6398 36.5058C53.9691 36.5058 54.2677 36.5643 54.5361 36.6816C54.9214 36.8516 55.237 37.1045 55.4829 37.4399C55.7285 37.7753 55.8513 38.14 55.8513 38.5335C55.8513 38.7467 55.7704 38.909 55.6086 39.0208C55.4688 39.1222 55.2843 39.1723 55.0553 39.1723H52.7518ZM52.7348 38.3259H54.5194C54.5028 38.1027 54.4118 37.9191 54.2472 37.7753C54.0825 37.6314 53.8824 37.5597 53.6481 37.5597C53.4076 37.5597 53.2064 37.6301 53.045 37.7711C52.8829 37.9122 52.7796 38.0971 52.7348 38.3259ZM57.3784 37.6875H56.8003C56.2366 37.6875 55.9542 37.5022 55.9542 37.1327C55.9542 36.7628 56.2366 36.5779 56.8003 36.5779H59.2974C59.8673 36.5779 60.1518 36.7628 60.1518 37.1327C60.1518 37.5022 59.8655 37.6875 59.2916 37.6875H58.711V40.1144C58.711 40.7424 58.4889 41.0566 58.0451 41.0566C57.6005 41.0566 57.3784 40.7424 57.3784 40.1144V37.6875ZM60.3216 38.8132C60.3216 38.1372 60.5339 37.5851 60.9582 37.1567C61.3829 36.728 61.947 36.5138 62.6508 36.5138C63.0195 36.5138 63.3405 36.5671 63.6142 36.6736C63.9829 36.8224 64.1675 37.046 64.1675 37.3441C64.1675 37.4987 64.114 37.6287 64.0079 37.7356C63.9021 37.8418 63.7677 37.8951 63.6059 37.8951C63.5001 37.8951 63.3615 37.862 63.1914 37.7951C63.0209 37.7286 62.8407 37.6955 62.6508 37.6955C62.3438 37.6955 62.1062 37.8073 61.9383 38.0309C61.7877 38.233 61.7126 38.4858 61.7126 38.7892C61.7126 39.1086 61.7906 39.3639 61.947 39.5554C62.1257 39.7686 62.377 39.8752 62.701 39.8752C62.8909 39.8752 63.0671 39.8431 63.2289 39.7794C63.3907 39.7156 63.5254 39.6836 63.6312 39.6836C63.7872 39.6836 63.9147 39.7379 64.0122 39.847C64.1101 39.9563 64.1588 40.088 64.1588 40.2423C64.1588 40.5031 63.9692 40.724 63.5893 40.9051C63.3156 41.0329 62.9747 41.0966 62.567 41.0966C61.8856 41.0966 61.3381 40.8758 60.925 40.4338C60.5227 40.0082 60.3216 39.4677 60.3216 38.8132ZM66.3898 39.1963L66.1887 39.3402V40.1103C66.1887 40.7414 65.9651 41.0566 65.5181 41.0566C65.0659 41.0566 64.8399 40.7424 64.8399 40.1134V37.5214C64.8399 36.8917 65.0659 36.5779 65.5181 36.5779C65.8593 36.5779 66.0688 36.7614 66.1468 37.1285C66.1749 37.2403 66.1887 37.5489 66.1887 38.0546L67.345 36.9279C67.5851 36.6945 67.8166 36.5779 68.0405 36.5779C68.1969 36.5779 68.3308 36.6228 68.4428 36.7137C68.5544 36.8039 68.61 36.9237 68.61 37.0728C68.61 37.2856 68.4959 37.4932 68.2665 37.6955L67.3533 38.5018L68.6186 39.9149C68.7974 40.1172 68.8862 40.3276 68.8862 40.5456C68.8862 40.6999 68.8212 40.8236 68.6898 40.9169C68.5583 41.0099 68.4117 41.0566 68.2499 41.0566C67.9816 41.0566 67.7469 40.9291 67.5461 40.6721L66.3898 39.1963ZM70.6738 38.949L72.2988 37.5116C72.2988 37.2138 72.3324 36.9982 72.3996 36.8652C72.5 36.6736 72.6899 36.5779 72.969 36.5779C73.2486 36.5779 73.4385 36.6736 73.5389 36.8652C73.6057 36.9996 73.6396 37.2152 73.6396 37.5134V40.1134C73.6396 40.4112 73.6057 40.6271 73.5389 40.7612C73.4396 40.9584 73.2511 41.0566 72.9734 41.0566C72.6953 41.0566 72.5068 40.9584 72.4079 40.7598C72.3407 40.6271 72.3071 40.4098 72.3071 40.1103V38.8453L70.6777 40.1103C70.6777 40.4046 70.6442 40.6216 70.5774 40.7598C70.4752 40.9584 70.2881 41.0566 70.0129 41.0566C69.5532 41.0566 69.3243 40.7424 69.3243 40.1134V37.5134C69.3243 37.2257 69.3607 37.0129 69.4333 36.8732C69.5395 36.6761 69.7323 36.5779 70.0115 36.5779C70.2852 36.5779 70.4726 36.6736 70.573 36.8652C70.6398 36.9982 70.6738 37.2138 70.6738 37.5116V38.949ZM74.4207 40.1134V37.5134C74.4207 37.2257 74.4572 37.0129 74.5298 36.8732C74.636 36.6761 74.8288 36.5779 75.1076 36.5779C75.3813 36.5779 75.5687 36.6736 75.6695 36.8652C75.7363 36.9982 75.7699 37.2138 75.7699 37.5116V38.949L77.3953 36.977C77.613 36.7106 77.8366 36.5779 78.0655 36.5779C78.3447 36.5779 78.535 36.6736 78.6354 36.8652C78.7025 36.9996 78.7358 37.2152 78.7358 37.5134V40.1134C78.7358 40.4112 78.7025 40.6271 78.6354 40.7612C78.5361 40.9584 78.3476 41.0566 78.0695 41.0566C77.7918 41.0566 77.6033 40.9584 77.504 40.7598C77.4372 40.6271 77.4036 40.4098 77.4036 40.1103V38.7892L75.7742 40.6641C75.5438 40.9263 75.3232 41.0566 75.109 41.0566C74.6501 41.0566 74.4207 40.7424 74.4207 40.1134ZM76.5824 36.2024C76.2025 36.2024 75.8901 36.1094 75.6442 35.9231C75.4153 35.7527 75.3004 35.564 75.3004 35.356C75.3004 35.0847 75.4344 34.9489 75.7027 34.9489C75.8537 34.9489 75.9866 35.0286 76.1007 35.1885C76.2152 35.348 76.3758 35.4278 76.5824 35.4278C76.8005 35.4278 76.9623 35.348 77.0681 35.1885C77.1746 35.0286 77.3003 34.9489 77.4455 34.9489C77.7192 34.9489 77.8557 35.0847 77.8557 35.356C77.8557 35.6277 77.7077 35.8433 77.4119 36.0028C77.166 36.1359 76.8897 36.2024 76.5824 36.2024ZM83.7315 40.0347H85.2143V37.5196C85.2143 36.8917 85.4363 36.5779 85.8809 36.5779C86.3247 36.5779 86.5468 36.8917 86.5468 37.5196V40.0347C86.9379 40.0347 87.1332 40.2182 87.1332 40.5853V41.392C87.1332 41.8124 86.9238 42.0228 86.5045 42.0228C86.2705 42.0228 86.1279 41.8921 86.0777 41.6316C86.0607 41.5623 86.0524 41.3495 86.0524 40.9928H83.2371C82.9688 40.9928 82.7597 40.8943 82.6091 40.6975C82.4694 40.5164 82.3993 40.2956 82.3993 40.0347V37.5196C82.3993 36.8917 82.6214 36.5779 83.0652 36.5779C83.5098 36.5779 83.7315 36.8917 83.7315 37.5196V40.0347ZM88.7695 39.1723C88.7973 39.4227 88.906 39.6143 89.0959 39.7473C89.2859 39.8804 89.5174 39.9469 89.7911 39.9469C90.0204 39.9469 90.297 39.8766 90.6209 39.7352C90.9449 39.5941 91.1456 39.5237 91.224 39.5237C91.5815 39.5237 91.7603 39.6913 91.7603 40.0267C91.7603 40.1545 91.7101 40.2823 91.6097 40.4098C91.4306 40.6442 91.1456 40.8222 90.7549 40.9451C90.4256 41.0514 90.0818 41.1046 89.7243 41.1046C89.054 41.1046 88.4957 40.8849 88.0487 40.446C87.602 40.0068 87.3784 39.4652 87.3784 38.8212C87.3784 38.1825 87.5919 37.6367 88.0194 37.1846C88.4466 36.7322 88.9926 36.5058 89.6575 36.5058C89.9868 36.5058 90.2855 36.5643 90.5538 36.6816C90.9394 36.8516 91.2547 37.1045 91.5003 37.4399C91.7462 37.7753 91.869 38.14 91.869 38.5335C91.869 38.7467 91.7881 38.909 91.6263 39.0208C91.4865 39.1222 91.302 39.1723 91.0731 39.1723H88.7695ZM88.7525 38.3259H90.5368C90.5205 38.1027 90.4295 37.9191 90.2649 37.7753C90.1002 37.6314 89.9001 37.5597 89.6658 37.5597C89.4253 37.5597 89.2241 37.6301 89.0627 37.7711C88.9002 37.9122 88.7973 38.0971 88.7525 38.3259ZM93.8573 39.2204V40.1103C93.8573 40.7414 93.6366 41.0566 93.195 41.0566C92.7371 41.0566 92.5081 40.7424 92.5081 40.1134V37.5134C92.5081 36.8892 92.7371 36.5779 93.195 36.5779C93.6366 36.5779 93.8573 36.8892 93.8573 37.5116V38.3103H95.3487V37.5116C95.3487 36.8892 95.5704 36.5779 96.0146 36.5779C96.4584 36.5779 96.6805 36.8892 96.6805 37.5134V40.1134C96.6805 40.7424 96.4584 41.0566 96.0146 41.0566C95.5704 41.0566 95.3487 40.7414 95.3487 40.1103V39.2204H93.8573ZM98.4926 37.6875H97.9145C97.3504 37.6875 97.0684 37.5022 97.0684 37.1327C97.0684 36.7628 97.3504 36.5779 97.9145 36.5779H100.411C100.981 36.5779 101.266 36.7628 101.266 37.1327C101.266 37.5022 100.98 37.6875 100.406 37.6875H99.8248V40.1144C99.8248 40.7424 99.6027 41.0566 99.1589 41.0566C98.7147 41.0566 98.4926 40.7424 98.4926 40.1144V37.6875ZM103.044 40.7536H103.011V41.8712C103.011 42.4884 102.796 42.7974 102.366 42.7974C101.907 42.7974 101.678 42.4832 101.678 41.8552V37.5116C101.678 36.8892 101.907 36.5779 102.366 36.5779C102.634 36.5779 102.849 36.7137 103.011 36.985C103.285 36.6921 103.656 36.5458 104.125 36.5458C104.751 36.5458 105.259 36.7799 105.65 37.2483C106.008 37.6847 106.187 38.2065 106.187 38.8132C106.187 39.2656 106.077 39.6808 105.859 40.0587C105.636 40.4579 105.321 40.7536 104.913 40.9451C104.656 41.0674 104.388 41.1287 104.108 41.1287C103.701 41.1287 103.346 41.0033 103.044 40.7536ZM103.011 38.893C103.011 39.1859 103.081 39.4252 103.222 39.6115C103.384 39.8243 103.614 39.9309 103.912 39.9309C104.209 39.9309 104.439 39.8139 104.601 39.5798C104.743 39.3719 104.812 39.1222 104.812 38.8292C104.812 38.5415 104.74 38.297 104.593 38.0947C104.431 37.8603 104.203 37.7436 103.912 37.7436C103.665 37.7436 103.452 37.822 103.276 37.9787C103.099 38.1358 103.011 38.4409 103.011 38.893ZM110.445 38.8132C110.445 38.5311 110.66 38.39 111.09 38.39C111.391 38.39 111.587 38.374 111.676 38.342C111.849 38.2838 111.936 38.1372 111.936 37.9031C111.936 37.6687 111.863 37.5092 111.718 37.4239C111.612 37.3654 111.433 37.3361 111.182 37.3361C110.986 37.3361 110.788 37.3709 110.587 37.4399C110.369 37.5144 110.204 37.5517 110.093 37.5517C109.763 37.5517 109.598 37.4054 109.598 37.1125C109.598 36.7025 110.16 36.4977 111.282 36.4977C111.908 36.4977 112.374 36.5831 112.681 36.7534C113.084 36.9714 113.285 37.3549 113.285 37.9031C113.285 38.2758 113.098 38.5576 112.724 38.7495C113.17 38.9783 113.394 39.3001 113.394 39.7156C113.394 40.6522 112.69 41.1207 111.282 41.1207C110.081 41.1207 109.481 40.8995 109.481 40.4579C109.481 40.1865 109.638 40.0507 109.95 40.0507C110.045 40.0507 110.218 40.0908 110.47 40.1705C110.721 40.2503 110.992 40.29 111.282 40.29C111.763 40.29 112.003 40.0988 112.003 39.7156C112.003 39.5398 111.958 39.4147 111.869 39.3402C111.78 39.2656 111.604 39.2256 111.341 39.2204C111.017 39.2148 110.816 39.2019 110.738 39.1803C110.542 39.1326 110.445 39.0103 110.445 38.8132ZM115.491 40.0347H116.948V37.6078H115.936C115.728 37.6078 115.624 37.706 115.624 37.9031V39.5157C115.624 39.6808 115.58 39.8536 115.491 40.0347ZM117.786 40.9928H114.703C114.703 41.3655 114.697 41.5808 114.686 41.6396C114.635 41.8949 114.491 42.0228 114.25 42.0228C113.832 42.0228 113.622 41.8124 113.622 41.392V40.5697C113.622 40.298 113.689 40.1329 113.823 40.0747C113.94 40.0483 114.06 40.0242 114.183 40.003C114.318 39.9445 114.384 39.7818 114.384 39.5157V37.8871C114.384 37.4078 114.519 37.0648 114.787 36.8572C115.032 36.6709 115.412 36.5779 115.926 36.5779H117.61C117.884 36.5779 118.071 36.6681 118.171 36.8492C118.244 36.977 118.28 37.1794 118.28 37.4559V40.0347C118.671 40.0347 118.867 40.2182 118.867 40.5853V41.392C118.867 41.8124 118.658 42.0228 118.238 42.0228C118.004 42.0228 117.862 41.8921 117.811 41.6316C117.794 41.5623 117.786 41.3495 117.786 40.9928ZM119.154 38.8132C119.154 38.1584 119.368 37.6092 119.795 37.1644C120.222 36.72 120.774 36.4977 121.449 36.4977C122.137 36.4977 122.689 36.7186 123.109 37.1606C123.527 37.6022 123.737 38.1532 123.737 38.8132C123.737 39.4677 123.53 40.0134 123.117 40.4499C122.687 40.8971 122.131 41.1207 121.449 41.1207C120.774 41.1207 120.218 40.8943 119.782 40.4418C119.364 40.0054 119.154 39.4628 119.154 38.8132ZM120.553 38.7972C120.553 39.0901 120.623 39.3454 120.762 39.5634C120.93 39.8191 121.159 39.9469 121.449 39.9469C121.74 39.9469 121.969 39.8191 122.137 39.5634C122.276 39.3454 122.346 39.0901 122.346 38.7972C122.346 38.5098 122.273 38.2598 122.129 38.0466C121.961 37.8018 121.735 37.6795 121.449 37.6795C121.159 37.6795 120.93 37.8018 120.762 38.0466C120.623 38.2542 120.553 38.5046 120.553 38.7972ZM125.808 40.7536H125.775V41.8712C125.775 42.4884 125.56 42.7974 125.13 42.7974C124.672 42.7974 124.443 42.4832 124.443 41.8552V37.5116C124.443 36.8892 124.672 36.5779 125.13 36.5779C125.398 36.5779 125.613 36.7137 125.775 36.985C126.049 36.6921 126.42 36.5458 126.889 36.5458C127.515 36.5458 128.023 36.7799 128.414 37.2483C128.771 37.6847 128.951 38.2065 128.951 38.8132C128.951 39.2656 128.841 39.6808 128.623 40.0587C128.4 40.4579 128.085 40.7536 127.677 40.9451C127.42 41.0674 127.152 41.1287 126.872 41.1287C126.465 41.1287 126.11 41.0033 125.808 40.7536ZM125.775 38.893C125.775 39.1859 125.845 39.4252 125.986 39.6115C126.148 39.8243 126.378 39.9309 126.676 39.9309C126.973 39.9309 127.203 39.8139 127.365 39.5798C127.506 39.3719 127.576 39.1222 127.576 38.8292C127.576 38.5415 127.504 38.297 127.357 38.0947C127.195 37.8603 126.967 37.7436 126.676 37.7436C126.428 37.7436 126.216 37.822 126.04 37.9787C125.863 38.1358 125.775 38.4409 125.775 38.893ZM129.405 38.8132C129.405 38.1584 129.619 37.6092 130.046 37.1644C130.473 36.72 131.024 36.4977 131.7 36.4977C132.388 36.4977 132.941 36.7186 133.359 37.1606C133.778 37.6022 133.988 38.1532 133.988 38.8132C133.988 39.4677 133.781 40.0134 133.368 40.4499C132.938 40.8971 132.382 41.1207 131.7 41.1207C131.024 41.1207 130.469 40.8943 130.033 40.4418C129.614 40.0054 129.405 39.4628 129.405 38.8132ZM130.804 38.7972C130.804 39.0901 130.873 39.3454 131.013 39.5634C131.181 39.8191 131.41 39.9469 131.7 39.9469C131.991 39.9469 132.22 39.8191 132.388 39.5634C132.527 39.3454 132.597 39.0901 132.597 38.7972C132.597 38.5098 132.524 38.2598 132.379 38.0466C132.212 37.8018 131.985 37.6795 131.7 37.6795C131.41 37.6795 131.181 37.8018 131.013 38.0466C130.873 38.2542 130.804 38.5046 130.804 38.7972ZM136.043 37.4078V38.39H136.587C136.805 38.39 136.964 38.3636 137.065 38.3103C137.199 38.2357 137.266 38.0999 137.266 37.9031C137.266 37.5729 137.023 37.4078 136.537 37.4078H136.043ZM135.465 41.0406C134.951 41.0406 134.694 40.7612 134.694 40.2022V37.4078C134.694 36.8544 134.951 36.5779 135.465 36.5779H136.679C137.288 36.5779 137.738 36.6548 138.028 36.8095C138.419 37.0115 138.615 37.3761 138.615 37.9031C138.615 38.2758 138.428 38.5576 138.054 38.7495C138.517 38.9835 138.749 39.3057 138.749 39.7156C138.749 40.2478 138.539 40.6149 138.121 40.8173C137.819 40.966 137.358 41.0406 136.738 41.0406H135.465ZM136.043 39.2204V40.2022H136.587C137.101 40.2022 137.358 40.0399 137.358 39.7156C137.358 39.5077 137.277 39.367 137.115 39.2921C137.009 39.2444 136.833 39.2204 136.587 39.2204H136.043ZM140.846 38.334C141.617 38.334 142.103 38.35 142.304 38.382C142.918 38.4726 143.301 38.7042 143.451 39.0765C143.519 39.2416 143.552 39.4388 143.552 39.6676C143.552 40.1998 143.343 40.5669 142.924 40.7692C142.622 40.9183 142.161 40.9928 141.541 40.9928H140.268C139.754 40.9928 139.497 40.7135 139.497 40.1545V37.4078C139.497 36.8544 139.723 36.5779 140.176 36.5779C140.622 36.5779 140.846 36.8544 140.846 37.4078V38.334ZM140.846 39.1723V40.1545H141.39C141.904 40.1545 142.161 39.9922 142.161 39.6676C142.161 39.4597 142.08 39.3189 141.918 39.2444C141.812 39.1963 141.636 39.1723 141.39 39.1723H140.846ZM146.822 39.2284H146.52L145.297 40.7518C145.202 40.8689 145.121 40.9476 145.054 40.9848C144.97 41.0329 144.856 41.0566 144.711 41.0566C144.532 41.0566 144.388 41.0022 144.279 40.8929C144.17 40.7839 144.116 40.6829 144.116 40.5923C144.116 40.4112 144.185 40.2437 144.325 40.0894L145.18 39.1525C144.487 39.0142 144.141 38.599 144.141 37.9056C144.141 37.0209 144.783 36.5779 146.068 36.5779H147.4C147.707 36.5779 147.917 36.6444 148.028 36.7774C148.123 36.8945 148.171 37.1045 148.171 37.4078V40.2172C148.171 40.7773 147.945 41.0566 147.492 41.0566C147.263 41.0566 147.09 40.9688 146.973 40.7919C146.872 40.6428 146.822 40.4499 146.822 40.2144V39.2284ZM146.822 38.398V37.4078H146.28C145.77 37.4078 145.515 37.5729 145.515 37.9031C145.515 38.233 145.77 38.398 146.28 38.398H146.822Z" fill="#2B3998"/>
</g>
<mask id="mask1_56_556" style="mask-type:luminance" maskUnits="userSpaceOnUse" x="-55" y="-76" width="305" height="208">
<path d="M-55 -75.9998H249.023V131.332H-55V-75.9998Z" fill="white"/>
</mask>
<g mask="url(#mask1_56_556)">
<path d="M28.1965 33.1816C27.947 33.1816 27.7133 33.0333 27.6234 32.7943C27.6036 32.7407 25.5795 27.41 22.4341 23.5245C21.6747 22.5865 20.9265 22.1602 20.2147 22.2542C18.7117 22.4541 17.394 24.825 17.0134 25.7219C16.8852 26.0228 16.5269 26.1656 16.2185 26.0433C15.9069 25.9204 15.7574 25.5777 15.8849 25.2771C16.0513 24.8835 17.5839 21.4194 20.0464 21.0899C21.2211 20.9331 22.3482 21.5085 23.3947 22.801C26.6621 26.8371 28.6851 32.1688 28.7696 32.3934C28.8841 32.6989 28.7209 33.0357 28.4042 33.1465C28.3359 33.1705 28.2655 33.1816 28.1965 33.1816Z" fill="#A7A5A6"/>
<path d="M16.8217 23.9171C17.0539 24.0247 17.2865 24.1327 17.5187 24.2403C18.0008 24.5179 17.9314 24.886 17.7173 25.273C17.4605 25.7369 17.1973 26.1754 17.1799 26.7355C17.1666 27.1663 16.6783 27.4192 16.2273 27.4004C15.7152 27.3788 15.227 27.1298 14.9995 26.6968C14.7673 26.2548 14.8305 25.7449 15.2432 25.4144C15.608 25.1225 15.8683 24.807 16.029 24.4089C16.1645 24.0728 16.4548 23.9463 16.8217 23.9171Z" fill="#2B3B92"/>
<path d="M17.5601 33.3374C17.5052 33.3374 17.4492 33.3301 17.394 33.3151C17.0704 33.2273 16.8816 32.9027 16.9726 32.59C17.034 32.3813 18.5059 27.4268 22.1738 22.5065C23.1369 21.2136 24.1939 20.6236 25.318 20.765C27.791 21.0684 29.3893 24.8714 29.5634 25.3036C29.6851 25.6063 29.5298 25.9466 29.216 26.064C28.904 26.182 28.5493 26.0323 28.4273 25.7296C28.0257 24.7345 26.656 22.1132 25.1642 21.9311C24.516 21.851 23.8458 22.2773 23.1629 23.1926C19.6199 27.9465 18.1607 32.8595 18.1462 32.9087C18.0707 33.1678 17.8263 33.3374 17.5601 33.3374Z" fill="#A7A5A6"/>
<path d="M28.456 23.5204C28.2314 23.65 28.0068 23.7796 27.7822 23.9091C27.3203 24.2313 27.4153 24.5915 27.6565 24.9565C27.9458 25.3946 28.2394 25.8063 28.2961 26.3625C28.3398 26.7902 28.8457 26.9957 29.2949 26.9341C29.8052 26.8641 30.2754 26.5694 30.4722 26.1163C30.6733 25.6541 30.5744 25.1519 30.1385 24.8617C29.7535 24.6057 29.4715 24.3163 29.2826 23.9349C29.1237 23.6127 28.8247 23.5145 28.456 23.5204Z" fill="#2B3B92"/>
<path d="M25.5444 37.2255C25.2638 38.6479 23.841 39.5814 22.3662 39.3107C20.8914 39.0401 19.9236 37.6678 20.2042 36.2454C20.4848 34.8233 21.9076 33.8895 23.3824 34.1601C24.8568 34.4308 25.825 35.8031 25.5444 37.2255Z" fill="#2B3B92"/>
<path d="M18.3449 41.0557C18.311 41.0557 18.2766 41.0543 18.2413 41.0518C15.1775 40.8025 12.6103 39.4953 10.8177 37.2707C8.65786 34.5903 7.76517 30.6967 8.42999 26.855C8.5015 26.4405 8.54591 26.0198 8.59358 25.5746C8.66689 24.8861 8.742 24.1783 8.92473 23.464C6.66845 22.7235 5.0835 20.6337 5.0835 18.3036C5.0835 15.3003 7.61711 12.857 10.731 12.857C12.676 12.857 14.4502 13.8064 15.4852 15.3678C17.5696 14.2314 19.9223 13.6326 22.3226 13.6326C24.7234 13.6326 27.076 14.231 29.1604 15.3678C30.1961 13.8064 31.9703 12.857 33.9146 12.857C37.0285 12.857 39.5621 15.3003 39.5621 18.3036C39.5621 20.633 37.9786 22.7221 35.7245 23.4626C35.999 24.4827 36.0943 25.5088 36.1871 26.5056L36.2275 26.9393C36.5287 30.0551 35.4436 33.0989 33.2497 35.2893C31.0357 37.4999 27.9944 38.6193 24.6847 38.4285C24.0127 38.3905 23.4999 37.8346 23.5385 37.1865C23.5779 36.5383 24.155 36.0388 24.8263 36.0813C27.413 36.229 29.7841 35.3656 31.4965 33.6558C33.1956 31.9589 34.0355 29.5901 33.8005 27.1576L33.7586 26.7153C33.6582 25.6318 33.5636 24.6081 33.2512 23.6733C33.088 23.1885 33.1439 22.6517 33.4068 22.2042C33.6683 21.7591 34.1157 21.4365 34.6336 21.3206C36.078 20.9998 37.1246 19.7313 37.1246 18.3036C37.1246 16.5966 35.6848 15.208 33.9146 15.208C32.7023 15.208 31.6056 15.86 31.0513 16.909C30.8107 17.3657 30.3788 17.707 29.8675 17.8449C29.3692 17.9811 28.8033 17.9066 28.3533 17.6387C26.5387 16.5559 24.454 15.984 22.3226 15.984C20.1917 15.984 18.1076 16.5559 16.2934 17.638C15.8427 17.9066 15.2851 17.9818 14.7788 17.8449C14.2664 17.706 13.8349 17.365 13.5944 16.9087C13.0408 15.8596 11.944 15.208 10.731 15.208C8.96084 15.208 7.52105 16.5966 7.52105 18.3036C7.52105 19.7309 8.56758 20.9994 10.0088 21.3206C10.5281 21.4355 10.9762 21.7577 11.2381 22.2049C11.4991 22.6455 11.5577 23.1812 11.3959 23.6705C11.1767 24.3256 11.0998 25.0487 11.0189 25.8146C10.9697 26.2765 10.9188 26.754 10.8343 27.2419C10.2796 30.4473 10.9932 33.6572 12.7425 35.8278C14.1259 37.5442 16.0446 38.5138 18.446 38.7085C19.117 38.7632 19.615 39.332 19.5586 39.9787C19.5048 40.5921 18.9718 41.0557 18.3449 41.0557Z" fill="#2B3B92"/>
<path d="M27.55 35.5488C28.3897 35.3517 29.1819 35.0313 29.9027 34.5976C29.837 34.1243 29.7323 33.6402 29.5853 33.1466C29.3993 32.5225 28.7259 32.1627 28.0766 32.3421C27.4302 32.5218 27.0564 33.1731 27.2427 33.7973C27.4269 34.4151 27.5287 35.0006 27.55 35.5488Z" fill="#2B3B92"/>
<path d="M26.4372 38.6705C26.1787 38.9334 25.876 39.1675 25.5297 39.3702C23.5176 40.5485 20.6012 40.3353 19.0299 38.8962C17.3836 37.3887 17.4486 34.8183 19.2119 31.6575C19.5312 31.0856 19.3098 30.3727 18.7168 30.0651C18.1246 29.7583 17.3854 29.9711 17.0658 30.5433C13.7995 36.3954 16.1771 39.5266 17.3514 40.6014C18.6995 41.8358 20.6326 42.4756 22.5913 42.4756C24.0574 42.4756 25.5369 42.1168 26.7951 41.3798C28.1886 40.5634 29.1463 39.3897 29.6273 37.9826C28.6191 38.3556 27.5473 38.5883 26.4372 38.6705Z" fill="#2B3B92"/>
</g>
</g>
<defs>
<clipPath id="clip0_56_556">
<rect width="159" height="55" fill="white"/>
</clipPath>
</defs>
</svg>
