<svg width="23" height="23" viewBox="0 0 23 23" fill="none" xmlns="http://www.w3.org/2000/svg">
<g clip-path="url(#clip0_86_30)">
<path d="M7.03033 0.0269051C6.98092 0.0358887 6.82819 0.0673351 6.69342 0.0942879C5.7276 0.291945 4.76627 1.10503 4.35748 2.06636C3.93522 3.06362 4.03404 4.24956 4.61354 5.15249L4.76627 5.39058H3.33326C2.54264 5.39058 1.79244 5.41304 1.65768 5.4355C0.849083 5.58823 0.197716 6.2396 0.044982 7.04819C-0.0179086 7.37163 -0.0134164 8.87651 0.0494742 9.173C0.170763 9.73452 0.566076 10.2646 1.05572 10.5162L1.34772 10.6689V15.8843C1.34772 19.2445 1.36568 21.1851 1.39264 21.3423C1.54537 22.1509 2.19674 22.8023 3.00533 22.955C3.33776 23.0179 19.6624 23.0179 19.9948 22.955C20.8034 22.8023 21.4547 22.1509 21.6075 21.3423C21.6344 21.1851 21.6524 19.2445 21.6524 15.8843V10.6689L21.9444 10.5162C22.434 10.2646 22.8294 9.73452 22.9506 9.173C23.0135 8.87651 23.018 7.37163 22.9551 7.04819C22.8024 6.2396 22.151 5.58823 21.3424 5.4355C21.2077 5.41304 20.4575 5.39058 19.6669 5.39058H18.2338L18.3866 5.15249C18.9661 4.24956 19.0649 3.06362 18.6426 2.06636C18.2338 1.10503 17.3399 0.34585 16.3067 0.0853024C15.9428 -0.0045414 15.013 0.00444412 14.6446 0.107763C14.1055 0.251514 13.7102 0.480616 13.3149 0.875929C12.7309 1.45542 12.3715 2.09331 11.7876 3.55776C11.6393 3.92163 11.5135 4.22261 11.5001 4.22261C11.4866 4.22261 11.3608 3.92163 11.2126 3.55776C10.6286 2.09331 10.2692 1.45542 9.68522 0.875929C9.2944 0.485107 8.89459 0.251514 8.37799 0.112257C8.11744 0.0403805 7.21451 -0.0180168 7.03033 0.0269051ZM8.21178 1.47339C8.8901 1.73394 9.25846 2.30894 10.1569 4.52358L10.5073 5.39058H8.92154C8.0276 5.39058 7.22799 5.37261 7.09322 5.34566C6.25768 5.18843 5.6108 4.51909 5.47154 3.66558C5.30084 2.64585 6.02858 1.61265 7.05729 1.39253C7.36276 1.32964 7.93776 1.37007 8.21178 1.47339ZM15.9069 1.39253C16.7424 1.54976 17.3893 2.21909 17.5286 3.07261C17.6993 4.1103 16.9626 5.14351 15.9069 5.34566C15.7721 5.37261 14.9725 5.39058 14.0786 5.39058H12.4928L12.8432 4.52358C13.5799 2.70874 13.9303 2.06186 14.3706 1.71597C14.7749 1.39702 15.3184 1.28023 15.9069 1.39253ZM8.80475 8.08589V9.43355H5.34576C1.96315 9.43355 1.87779 9.43355 1.70709 9.3437C1.39264 9.18198 1.34772 9.02925 1.34772 8.08589C1.34772 7.15151 1.39264 6.9898 1.69811 6.83257C1.85983 6.74273 1.96764 6.74273 5.33678 6.73823H8.80475V8.08589ZM12.8477 14.1953V21.6523H11.5001H10.1524V14.1953V6.73823H11.5001H12.8477V14.1953ZM21.293 6.82808C21.6075 6.9898 21.6524 7.14253 21.6524 8.08589C21.6524 9.02925 21.6075 9.18198 21.293 9.3437C21.1223 9.43355 21.037 9.43355 17.6544 9.43355H14.1954V8.08589V6.73823H17.6544C21.037 6.73823 21.1223 6.73823 21.293 6.82808ZM8.80475 16.2167V21.6523H6.01959C3.31529 21.6523 3.22545 21.6478 3.05475 21.5625C2.93795 21.5041 2.84361 21.4097 2.78522 21.2929C2.69537 21.1177 2.69537 21.0414 2.69537 15.9472V10.7812H5.75006H8.80475V16.2167ZM20.3047 15.9472C20.3047 21.0414 20.3047 21.1177 20.2149 21.2929C20.1565 21.4097 20.0622 21.5041 19.9454 21.5625C19.7747 21.6478 19.6848 21.6523 16.9805 21.6523H14.1954V16.2167V10.7812H17.2501H20.3047V15.9472Z" fill="#EC008C"/>
</g>
<defs>
<clipPath id="clip0_86_30">
<rect width="23" height="23" fill="white"/>
</clipPath>
</defs>
</svg>
