<svg width="139" height="45" viewBox="0 0 139 45" fill="none" xmlns="http://www.w3.org/2000/svg">
<g clip-path="url(#clip0_86_265)">
<mask id="mask0_86_265" style="mask-type:luminance" maskUnits="userSpaceOnUse" x="-42" y="-66" width="258" height="176">
<path d="M-42 -65.9998H216V109.946H-42V-65.9998Z" fill="white"/>
</mask>
<g mask="url(#mask0_86_265)">
<path d="M127.297 17.4591C127.297 16.685 127.172 15.9986 126.923 15.3998C126.679 14.8137 126.311 14.3003 125.82 13.8596C125.322 13.413 124.739 13.0781 124.072 12.8553C123.385 12.6259 122.594 12.5112 121.7 12.5112H120.528V22.4069H121.7C122.689 22.4069 123.547 22.2801 124.272 22.0268C124.969 21.7833 125.554 21.4209 126.024 20.9397C126.027 20.937 126.03 20.9344 126.032 20.9317C126.451 20.5046 126.765 20.0104 126.974 19.4488C127.189 18.8704 127.297 18.2071 127.297 17.4591ZM103.511 25.1199H102.232C101.78 25.1199 101.413 24.7759 101.395 24.3453L100.411 17.0074L96.4108 25.2006C96.2137 25.6035 95.7155 25.7758 95.2978 25.5858C95.1145 25.5024 94.9772 25.3629 94.8975 25.1989L90.8986 17.0074L89.9057 24.4126C89.8524 24.8199 89.4923 25.1173 89.0774 25.1167V25.1199H87.7985C87.3358 25.1199 86.9607 24.7579 86.9607 24.3116C86.9607 24.253 86.9671 24.1957 86.9797 24.1407L88.899 9.94744C88.9588 9.50645 89.3777 9.19551 89.8352 9.25314C90.1392 9.29127 90.3838 9.4828 90.4956 9.7367L95.6545 20.3695L100.826 9.71069C101.021 9.30812 101.518 9.13432 101.936 9.3226C102.204 9.44349 102.374 9.68408 102.41 9.94773L102.41 9.94744L104.339 24.2075C104.399 24.6485 104.076 25.0528 103.619 25.1105C103.582 25.1149 103.546 25.1173 103.511 25.1173V25.1199ZM114.574 25.1199H106.962C106.499 25.1199 106.124 24.7579 106.124 24.3116V10.6066C106.124 10.1602 106.499 9.79817 106.962 9.79817H114.574C115.037 9.79817 115.412 10.1602 115.412 10.6066V11.7028C115.412 12.1491 115.037 12.5112 114.574 12.5112H109.18V15.2804H114.351C114.814 15.2804 115.189 15.6422 115.189 16.0885V17.1851C115.189 17.6314 114.814 17.9932 114.351 17.9932H109.18V22.4069H114.574C115.037 22.4069 115.412 22.769 115.412 23.2153V24.3116C115.412 24.7579 115.037 25.1199 114.574 25.1199ZM130.434 17.4591C130.434 19.416 129.82 21.0904 128.59 22.4829L128.591 22.4832C127.811 23.3672 126.847 24.0305 125.697 24.4724C124.575 24.9042 123.29 25.1199 121.842 25.1199H118.31C117.847 25.1199 117.472 24.7579 117.472 24.3116V10.6066C117.472 10.1602 117.847 9.79817 118.31 9.79817H121.842C123.16 9.79817 124.35 9.9832 125.41 10.353C126.489 10.7292 127.425 11.2952 128.217 12.0516C128.957 12.758 129.512 13.567 129.883 14.4782C130.251 15.3806 130.434 16.3743 130.434 17.4591Z" fill="#6AC62F"/>
<path d="M85.9133 11.2188L83.2135 15.4738C82.9833 15.8377 82.5025 15.9633 82.1161 15.7703L81.4425 15.4732C81.0245 15.2888 80.8397 14.8135 81.0281 14.4101L81.0266 14.4092L83.1583 9.85711C83.348 9.451 83.8432 9.27011 84.2646 9.45307C84.2842 9.46164 84.3035 9.4711 84.3222 9.48085L85.5695 10.0758C85.9835 10.273 86.1536 10.7562 85.9492 11.1556C85.9381 11.1774 85.9262 11.1984 85.9133 11.2188Z" fill="#00ADEF"/>
<path d="M80.0895 22.0013C80.0895 22.8522 79.8042 23.5956 79.2336 24.232C79.2272 24.2393 79.2204 24.2464 79.2134 24.2535C78.8346 24.6641 78.3709 24.9715 77.8221 25.1754C77.2907 25.3732 76.6913 25.4722 76.0238 25.4722C75.6812 25.4722 75.3472 25.437 75.0217 25.3669C74.6901 25.2954 74.3824 25.189 74.0981 25.0477L74.0956 25.0465L74.095 25.0477C73.6607 24.8299 73.2789 24.5331 72.9498 24.1572C72.6338 23.7963 72.3715 23.368 72.1625 22.872C71.9949 22.473 72.1821 22.0199 72.5814 21.839L73.5437 21.3466C73.9522 21.1391 74.4578 21.2901 74.673 21.6844C74.7005 21.7353 74.7223 21.7879 74.7379 21.8411C74.7955 22.0063 74.866 22.1532 74.9497 22.2818C75.03 22.4053 75.1259 22.5144 75.2374 22.609C75.2525 22.6217 75.2669 22.635 75.2807 22.6486C75.3861 22.7322 75.501 22.7958 75.6254 22.8392C75.7722 22.8904 75.9457 22.9161 76.1458 22.9161C76.5181 22.9161 76.7835 22.8304 76.9416 22.6589C76.9478 22.6521 76.9542 22.6456 76.9603 22.6391C77.0903 22.4943 77.1549 22.2948 77.1549 22.0403C77.1549 21.6986 76.8901 21.4302 76.3609 21.2358C75.9012 21.1007 75.6456 21.0256 75.5926 21.0096C75.4461 20.9653 75.2724 20.9109 75.072 20.8465C74.7134 20.7312 74.3981 20.6003 74.1259 20.4537C73.8219 20.2896 73.5667 20.1085 73.361 19.9101C73.3472 19.8968 73.3344 19.8835 73.3218 19.8696C73.0564 19.6095 72.8548 19.3116 72.7175 18.9764C72.5768 18.6324 72.5063 18.257 72.5063 17.8506C72.5063 17.3812 72.5983 16.9479 72.7821 16.5507C72.9682 16.149 73.2427 15.7996 73.6062 15.5023C73.9531 15.2182 74.3469 15.0048 74.787 14.8618C75.2145 14.7232 75.6741 14.6537 76.166 14.6537C76.4807 14.6537 76.7878 14.6856 77.0869 14.7492C77.3912 14.8139 77.6719 14.9106 77.9293 15.0391C77.9477 15.048 77.9655 15.0577 77.983 15.0681C78.3351 15.2531 78.651 15.4949 78.9314 15.7934C79.2125 16.0928 79.4552 16.4472 79.6593 16.8572C79.8529 17.2476 79.6914 17.7132 79.2992 17.9147L78.3856 18.3847C77.979 18.594 77.4733 18.4456 77.2564 18.0531C77.2441 18.0309 77.2331 18.0084 77.2233 17.9857L77.2205 17.9869C77.1589 17.8453 77.09 17.7276 77.0136 17.6348C76.9383 17.5429 76.8515 17.4652 76.7535 17.4007C76.6594 17.339 76.5546 17.2914 76.4397 17.2586C76.3272 17.2261 76.2022 17.2101 76.0646 17.2101C75.839 17.2101 75.6692 17.2624 75.5546 17.3676C75.5007 17.417 75.4621 17.4687 75.4388 17.5231C75.413 17.5828 75.4002 17.6594 75.4002 17.7528C75.4002 17.8541 75.4167 17.9334 75.4495 17.9895C75.4792 18.0403 75.5316 18.087 75.6067 18.1296C75.641 18.1438 75.7544 18.1837 75.9469 18.2496C76.2015 18.3371 76.5503 18.4509 76.9931 18.591C77.3967 18.7184 77.7599 18.86 78.0819 19.0151C78.4233 19.1798 78.7102 19.3577 78.9425 19.5483C78.9535 19.5575 78.9642 19.567 78.9746 19.5767C79.3384 19.8782 79.6139 20.2311 79.8011 20.6352C79.9933 21.0504 80.0895 21.5056 80.0895 22.0013Z" fill="#FBC707"/>
<path d="M67.9993 20.0629C67.9993 19.6332 67.9389 19.2424 67.8185 18.8913C67.7011 18.5484 67.5267 18.2405 67.296 17.9673C67.0787 17.7102 66.8341 17.5196 66.562 17.3954C66.2917 17.2719 65.981 17.2098 65.6298 17.2098C65.2167 17.2098 64.8569 17.2822 64.5501 17.4264C64.2489 17.568 63.9878 17.7835 63.7669 18.0726C63.5572 18.3472 63.4009 18.6457 63.2974 18.9684C63.1916 19.298 63.1386 19.6627 63.1386 20.0629C63.1386 20.4998 63.199 20.8944 63.3194 21.247C63.4371 21.591 63.6103 21.8972 63.8389 22.1653C64.0528 22.4163 64.3007 22.6034 64.5829 22.7266C64.8716 22.8528 65.2069 22.9161 65.5893 22.9161C65.9571 22.9161 66.2813 22.8567 66.5623 22.7381C66.8369 22.6226 67.0845 22.4438 67.3055 22.202C67.5316 21.9546 67.7017 21.6617 67.816 21.3235C67.9383 20.9621 67.9993 20.5418 67.9993 20.0629ZM69.9741 25.1198H68.8371C68.538 25.1198 68.2754 24.9682 68.1271 24.7406C68.037 24.7971 67.9444 24.8506 67.8494 24.9011C67.4982 25.0879 67.132 25.2298 66.7505 25.3262C66.3659 25.4234 65.9788 25.4722 65.5893 25.4722C64.8698 25.4722 64.2002 25.3622 63.5808 25.1426C62.9584 24.9218 62.3927 24.5893 61.8831 24.1448C61.8766 24.1391 61.8705 24.1335 61.8644 24.1279C61.2971 23.6231 60.8712 23.026 60.5862 22.3371C60.3045 21.6561 60.1636 20.8979 60.1636 20.0629C60.1636 19.3027 60.2895 18.6002 60.5414 17.9555C60.7964 17.3032 61.1776 16.7209 61.6851 16.2084C62.1981 15.69 62.7896 15.3001 63.4589 15.0391C64.118 14.7823 64.8416 14.6537 65.6298 14.6537C66.2926 14.6537 66.9016 14.7672 67.4562 14.9942L67.4618 14.9966L67.4627 14.9942C67.6199 15.0595 67.7719 15.134 67.9181 15.2171V9.94084C67.9181 9.49423 68.2932 9.13245 68.7559 9.13245H69.9741C70.4368 9.13245 70.8119 9.49423 70.8119 9.94084V24.3115C70.8119 24.7578 70.4368 25.1198 69.9741 25.1198Z" fill="#EC008C"/>
<path d="M57.7532 25.1198H56.5353C56.0726 25.1198 55.6972 24.758 55.6972 24.3117V16.242C55.6972 15.7957 56.0726 15.4339 56.5353 15.4339H57.7532C58.2159 15.4339 58.591 15.7957 58.591 16.242V24.3117C58.591 24.758 58.2159 25.1198 57.7532 25.1198ZM58.9158 12.9363C58.9158 13.171 58.8693 13.3942 58.7761 13.6061C58.6808 13.8228 58.5432 14.0116 58.3633 14.1727C58.0118 14.4878 57.6054 14.645 57.1442 14.645C56.919 14.645 56.7005 14.6057 56.4884 14.5271C56.2782 14.4491 56.0879 14.3341 55.9181 14.1825C55.733 14.0172 55.5948 13.8251 55.5032 13.6058C55.4161 13.3971 55.3723 13.174 55.3723 12.9363C55.3723 12.7194 55.4134 12.5084 55.4949 12.3038C55.5758 12.1011 55.6947 11.9175 55.8519 11.7538C56.0235 11.5752 56.2227 11.4419 56.4501 11.3536C56.6662 11.2693 56.8975 11.2274 57.1442 11.2274C57.3826 11.2274 57.6076 11.2676 57.819 11.3479C58.0424 11.4328 58.2383 11.5563 58.4065 11.7189C58.5751 11.8812 58.7032 12.07 58.7911 12.2855C58.8742 12.4891 58.9158 12.7061 58.9158 12.9363Z" fill="#F47216"/>
<path d="M53.9975 25.1198H52.1502C51.8876 25.1198 51.6529 25.003 51.4993 24.8203L46.6344 19.7235V24.3117C46.6344 24.758 46.2593 25.1198 45.7965 25.1198H44.416C43.9532 25.1198 43.5781 24.758 43.5781 24.3117V10.6064C43.5781 10.1601 43.9532 9.79827 44.416 9.79827H45.7965C46.2593 9.79827 46.6344 10.1601 46.6344 10.6064V14.9684L51.5481 10.0477C51.712 9.8831 51.9311 9.80034 52.1502 9.80034V9.79827H53.8553C54.3181 9.79827 54.6935 10.1601 54.6935 10.6064C54.6935 10.8484 54.5832 11.0654 54.4088 11.2135L48.2739 17.2552L54.6065 23.7589C54.9227 24.0835 54.9068 24.5936 54.5703 24.8987C54.4088 25.0453 54.2029 25.1177 53.9975 25.1177V25.1198Z" fill="#00ADEF"/>
<path d="M45.1512 32.4694H46.3884V30.4098H45.5291C45.3528 30.4098 45.2649 30.4932 45.2649 30.6605V32.029C45.2649 32.1691 45.2269 32.3157 45.1512 32.4694ZM47.0993 33.2825H44.4828C44.4828 33.5988 44.4779 33.7814 44.4687 33.8314C44.4258 34.048 44.3029 34.1565 44.0988 34.1565C43.7434 34.1565 43.5659 33.978 43.5659 33.6212V32.9234C43.5659 32.6928 43.6223 32.5527 43.7363 32.5034C43.8356 32.4809 43.9376 32.4605 44.0418 32.4425C44.1558 32.3928 44.2125 32.2548 44.2125 32.029V30.6469C44.2125 30.2402 44.3265 29.9491 44.5539 29.7729C44.7626 29.6148 45.0847 29.5358 45.5208 29.5358H46.9501C47.1824 29.5358 47.3414 29.6124 47.4266 29.7661C47.4879 29.8746 47.5186 30.0463 47.5186 30.281V32.4694C47.8507 32.4694 48.0165 32.6251 48.0165 32.9367V33.6212C48.0165 33.978 47.8388 34.1565 47.4833 34.1565C47.2841 34.1565 47.1634 34.0457 47.1205 33.8246C47.1064 33.7658 47.0993 33.5852 47.0993 33.2825ZM49.4406 31.7375C49.4642 31.9501 49.5565 32.1126 49.7177 32.2255C49.8789 32.3384 50.0753 32.3949 50.3076 32.3949C50.5019 32.3949 50.7369 32.3352 51.0118 32.2152C51.2867 32.0955 51.4574 32.0358 51.5236 32.0358C51.827 32.0358 51.9787 32.1779 51.9787 32.4626C51.9787 32.5711 51.9361 32.6795 51.8509 32.7877C51.6989 32.9866 51.4574 33.1377 51.1255 33.242C50.846 33.3321 50.5543 33.3774 50.2509 33.3774C49.6821 33.3774 49.2083 33.1909 48.8289 32.8184C48.4496 32.4457 48.2602 31.9861 48.2602 31.4396C48.2602 30.8975 48.4416 30.4344 48.8038 30.0507C49.1667 29.6668 49.63 29.4747 50.1942 29.4747C50.4737 29.4747 50.7271 29.5243 50.9548 29.6239C51.2818 29.7682 51.5496 29.9827 51.7583 30.2674C51.9667 30.552 52.0709 30.8615 52.0709 31.1955C52.0709 31.3764 52.0023 31.5141 51.865 31.609C51.7464 31.695 51.5898 31.7375 51.3955 31.7375H49.4406ZM49.4262 31.0193H50.9407C50.9266 30.8299 50.8494 30.6741 50.7097 30.552C50.5699 30.4299 50.4001 30.3691 50.2012 30.3691C49.9971 30.3691 49.8265 30.4288 49.6895 30.5485C49.5519 30.6682 49.4642 30.8251 49.4262 31.0193ZM53.3669 30.4775H52.8763C52.3979 30.4775 52.1583 30.3203 52.1583 30.0067C52.1583 29.6928 52.3979 29.5358 52.8763 29.5358H54.9954C55.479 29.5358 55.7205 29.6928 55.7205 30.0067C55.7205 30.3203 55.4775 30.4775 54.9905 30.4775H54.4977V32.5371C54.4977 33.07 54.3093 33.3366 53.9326 33.3366C53.5554 33.3366 53.3669 33.07 53.3669 32.5371V30.4775ZM55.8645 31.4328C55.8645 30.8591 56.0447 30.3906 56.4048 30.0271C56.7652 29.6632 57.2438 29.4815 57.8411 29.4815C58.154 29.4815 58.4265 29.5267 58.6587 29.6171C58.9716 29.7433 59.1282 29.9331 59.1282 30.1861C59.1282 30.3173 59.0829 30.4276 58.9928 30.5183C58.903 30.6085 58.789 30.6537 58.6517 30.6537C58.5619 30.6537 58.4442 30.6256 58.2999 30.5689C58.1552 30.5124 58.0023 30.4843 57.8411 30.4843C57.5806 30.4843 57.379 30.5792 57.2365 30.769C57.1087 30.9404 57.045 31.155 57.045 31.4124C57.045 31.6835 57.1112 31.9001 57.2438 32.0627C57.3955 32.2436 57.6088 32.334 57.8837 32.334C58.0449 32.334 58.1945 32.3068 58.3318 32.2527C58.469 32.1986 58.5834 32.1714 58.6731 32.1714C58.8055 32.1714 58.9137 32.2176 58.9965 32.3101C59.0795 32.4029 59.1209 32.5146 59.1209 32.6455C59.1209 32.8669 58.96 33.0543 58.6376 33.208C58.4053 33.3165 58.116 33.3706 57.77 33.3706C57.1918 33.3706 56.7272 33.1832 56.3766 32.8081C56.0352 32.4469 55.8645 31.9882 55.8645 31.4328ZM61.0141 31.7579L60.8435 31.88V32.5335C60.8435 33.0691 60.6538 33.3366 60.2744 33.3366C59.8907 33.3366 59.6988 33.07 59.6988 32.5362V30.3365C59.6988 29.8022 59.8907 29.5358 60.2744 29.5358C60.564 29.5358 60.7417 29.6916 60.8079 30.0031C60.8318 30.098 60.8435 30.3599 60.8435 30.7891L61.8247 29.8329C62.0285 29.6349 62.2249 29.5358 62.4149 29.5358C62.5476 29.5358 62.6613 29.574 62.7563 29.6511C62.851 29.7277 62.8982 29.8293 62.8982 29.9558C62.8982 30.1364 62.8014 30.3126 62.6068 30.4843L61.8318 31.1686L62.9056 32.3677C63.0573 32.5394 63.1327 32.718 63.1327 32.903C63.1327 33.0339 63.0775 33.1388 62.9659 33.2181C62.8544 33.297 62.73 33.3366 62.5927 33.3366C62.365 33.3366 62.1658 33.2284 61.9954 33.0103L61.0141 31.7579ZM64.6496 31.5481L66.0286 30.3283C66.0286 30.0756 66.0571 29.8926 66.1141 29.7797C66.1993 29.6171 66.3605 29.5358 66.5974 29.5358C66.8346 29.5358 66.9958 29.6171 67.081 29.7797C67.1377 29.8938 67.1665 30.0767 67.1665 30.3297V32.5362C67.1665 32.7889 67.1377 32.9721 67.081 33.0859C66.9967 33.2532 66.8368 33.3366 66.6011 33.3366C66.3651 33.3366 66.2052 33.2532 66.1212 33.0848C66.0642 32.9721 66.0357 32.7877 66.0357 32.5335V31.46L64.653 32.5335C64.653 32.7833 64.6245 32.9674 64.5678 33.0848C64.4811 33.2532 64.3223 33.3366 64.0888 33.3366C63.6987 33.3366 63.5044 33.07 63.5044 32.5362V30.3297C63.5044 30.0856 63.5353 29.905 63.5969 29.7865C63.687 29.6192 63.8507 29.5358 64.0876 29.5358C64.3199 29.5358 64.4789 29.6171 64.5641 29.7797C64.6208 29.8926 64.6496 30.0756 64.6496 30.3283V31.5481ZM67.8294 32.5362V30.3297C67.8294 30.0856 67.8603 29.905 67.9219 29.7865C68.012 29.6192 68.1756 29.5358 68.4122 29.5358C68.6445 29.5358 68.8036 29.6171 68.8891 29.7797C68.9458 29.8926 68.9743 30.0756 68.9743 30.3283V31.5481L70.3536 29.8746C70.5384 29.6485 70.7281 29.5358 70.9224 29.5358C71.1593 29.5358 71.3208 29.6171 71.406 29.7797C71.463 29.8938 71.4912 30.0767 71.4912 30.3297V32.5362C71.4912 32.7889 71.463 32.9721 71.406 33.0859C71.3217 33.2532 71.1617 33.3366 70.9258 33.3366C70.6901 33.3366 70.5301 33.2532 70.4459 33.0848C70.3892 32.9721 70.3607 32.7877 70.3607 32.5335V31.4124L68.9779 33.0035C68.7824 33.226 68.5952 33.3366 68.4135 33.3366C68.024 33.3366 67.8294 33.07 67.8294 32.5362ZM69.6638 29.2172C69.3414 29.2172 69.0763 29.1383 68.8676 28.9802C68.6733 28.8356 68.5759 28.6754 68.5759 28.499C68.5759 28.2687 68.6896 28.1535 68.9173 28.1535C69.0454 28.1535 69.1581 28.2211 69.255 28.3568C69.3521 28.4922 69.4885 28.5599 69.6638 28.5599C69.8489 28.5599 69.9862 28.4922 70.076 28.3568C70.1664 28.2211 70.273 28.1535 70.3962 28.1535C70.6285 28.1535 70.7443 28.2687 70.7443 28.499C70.7443 28.7295 70.6187 28.9125 70.3677 29.0479C70.159 29.1608 69.9246 29.2172 69.6638 29.2172ZM75.7306 32.4694H76.9889V30.3351C76.9889 29.8022 77.1774 29.5358 77.5547 29.5358C77.9313 29.5358 78.1198 29.8022 78.1198 30.3351V32.4694C78.4516 32.4694 78.6174 32.6251 78.6174 32.9367V33.6212C78.6174 33.978 78.4397 34.1565 78.0839 34.1565C77.8853 34.1565 77.7643 34.0457 77.7217 33.8246C77.7073 33.7658 77.7002 33.5852 77.7002 33.2825H75.3111C75.0834 33.2825 74.906 33.1988 74.7782 33.0318C74.6596 32.8782 74.6001 32.6908 74.6001 32.4694V30.3351C74.6001 29.8022 74.7886 29.5358 75.1652 29.5358C75.5425 29.5358 75.7306 29.8022 75.7306 30.3351V32.4694ZM80.006 31.7375C80.0296 31.9501 80.1218 32.1126 80.283 32.2255C80.4442 32.3384 80.6406 32.3949 80.8729 32.3949C81.0675 32.3949 81.3023 32.3352 81.5772 32.2152C81.8521 32.0955 82.0224 32.0358 82.0889 32.0358C82.3923 32.0358 82.544 32.1779 82.544 32.4626C82.544 32.5711 82.5014 32.6795 82.4162 32.7877C82.2642 32.9866 82.0224 33.1377 81.6909 33.242C81.4114 33.3321 81.1196 33.3774 80.8162 33.3774C80.2475 33.3774 79.7737 33.1909 79.3943 32.8184C79.0152 32.4457 78.8255 31.9861 78.8255 31.4396C78.8255 30.8975 79.0066 30.4344 79.3695 30.0507C79.732 29.6668 80.1954 29.4747 80.7595 29.4747C81.039 29.4747 81.2925 29.5243 81.5202 29.6239C81.8475 29.7682 82.115 29.9827 82.3234 30.2674C82.5321 30.552 82.6363 30.8615 82.6363 31.1955C82.6363 31.3764 82.5676 31.5141 82.4303 31.609C82.3117 31.695 82.1551 31.7375 81.9608 31.7375H80.006ZM79.9916 31.0193H81.5058C81.492 30.8299 81.4147 30.6741 81.275 30.552C81.1353 30.4299 80.9655 30.3691 80.7666 30.3691C80.5625 30.3691 80.3918 30.4288 80.2548 30.5485C80.1169 30.6682 80.0296 30.8251 79.9916 31.0193ZM84.3236 31.7783V32.5335C84.3236 33.0691 84.1364 33.3366 83.7616 33.3366C83.373 33.3366 83.1787 33.07 83.1787 32.5362V30.3297C83.1787 29.8001 83.373 29.5358 83.7616 29.5358C84.1364 29.5358 84.3236 29.8001 84.3236 30.3283V31.006H85.5892V30.3283C85.5892 29.8001 85.7774 29.5358 86.1544 29.5358C86.531 29.5358 86.7195 29.8001 86.7195 30.3297V32.5362C86.7195 33.07 86.531 33.3366 86.1544 33.3366C85.7774 33.3366 85.5892 33.0691 85.5892 32.5335V31.7783H84.3236ZM88.2572 30.4775H87.7666C87.2879 30.4775 87.0486 30.3203 87.0486 30.0067C87.0486 29.6928 87.2879 29.5358 87.7666 29.5358H89.8854C90.369 29.5358 90.6105 29.6928 90.6105 30.0067C90.6105 30.3203 90.3678 30.4775 89.8808 30.4775H89.3877V32.5371C89.3877 33.07 89.1993 33.3366 88.8226 33.3366C88.4457 33.3366 88.2572 33.07 88.2572 32.5371V30.4775ZM92.1198 33.0794H92.0916V34.0279C92.0916 34.5517 91.9089 34.8138 91.5439 34.8138C91.1551 34.8138 90.9608 34.5472 90.9608 34.0143V30.3283C90.9608 29.8001 91.1551 29.5358 91.5439 29.5358C91.7716 29.5358 91.954 29.6511 92.0916 29.8814C92.3239 29.6328 92.6389 29.5087 93.0373 29.5087C93.5681 29.5087 93.9992 29.7073 94.3311 30.1048C94.6345 30.4752 94.7865 30.9179 94.7865 31.4328C94.7865 31.8168 94.6937 32.1691 94.5089 32.4898C94.3195 32.8285 94.0517 33.0794 93.7057 33.242C93.4875 33.3457 93.2598 33.3978 93.0229 33.3978C92.6769 33.3978 92.376 33.2914 92.1198 33.0794ZM92.0916 31.5005C92.0916 31.7491 92.1507 31.9521 92.2705 32.1103C92.4078 32.2909 92.6034 32.3813 92.8559 32.3813C93.1084 32.3813 93.3036 32.282 93.4412 32.0834C93.561 31.9069 93.6202 31.695 93.6202 31.4464C93.6202 31.2023 93.5586 30.9948 93.4341 30.8231C93.2966 30.6241 93.1035 30.5251 92.8559 30.5251C92.6463 30.5251 92.4661 30.5916 92.3168 30.7246C92.1664 30.8579 92.0916 31.1169 92.0916 31.5005ZM98.3999 31.4328C98.3999 31.1934 98.5826 31.0737 98.9475 31.0737C99.2031 31.0737 99.3692 31.0601 99.4452 31.0329C99.592 30.9835 99.6653 30.8591 99.6653 30.6605C99.6653 30.4616 99.6037 30.3262 99.4805 30.2538C99.3907 30.2041 99.2387 30.1793 99.0257 30.1793C98.8596 30.1793 98.6917 30.2089 98.521 30.2674C98.3359 30.3306 98.1961 30.3623 98.1014 30.3623C97.8216 30.3623 97.6819 30.2381 97.6819 29.9895C97.6819 29.6417 98.1581 29.4679 99.1109 29.4679C99.6417 29.4679 100.038 29.5403 100.298 29.6848C100.639 29.8698 100.81 30.1953 100.81 30.6605C100.81 30.9767 100.651 31.2159 100.334 31.3787C100.713 31.5729 100.902 31.846 100.902 32.1986C100.902 32.9934 100.305 33.391 99.1109 33.391C98.0916 33.391 97.5823 33.2033 97.5823 32.8285C97.5823 32.5982 97.715 32.483 97.9804 32.483C98.061 32.483 98.2078 32.517 98.4214 32.5847C98.6344 32.6523 98.8645 32.686 99.1109 32.686C99.5185 32.686 99.7223 32.5238 99.7223 32.1986C99.7223 32.0494 99.6843 31.9433 99.6086 31.88C99.5329 31.8168 99.3836 31.7828 99.1605 31.7783C98.8856 31.7736 98.7153 31.7627 98.6488 31.7443C98.483 31.7039 98.3999 31.6001 98.3999 31.4328ZM102.682 32.4694H103.919V30.4098H103.06C102.883 30.4098 102.795 30.4932 102.795 30.6605V32.029C102.795 32.1691 102.758 32.3157 102.682 32.4694ZM104.63 33.2825H102.014C102.014 33.5988 102.009 33.7814 101.999 33.8314C101.956 34.048 101.834 34.1565 101.63 34.1565C101.274 34.1565 101.096 33.978 101.096 33.6212V32.9234C101.096 32.6928 101.153 32.5527 101.267 32.5034C101.366 32.4809 101.468 32.4605 101.573 32.4425C101.687 32.3928 101.743 32.2548 101.743 32.029V30.6469C101.743 30.2402 101.857 29.9491 102.085 29.7729C102.293 29.6148 102.615 29.5358 103.052 29.5358H104.481C104.713 29.5358 104.872 29.6124 104.957 29.7661C105.018 29.8746 105.049 30.0463 105.049 30.281V32.4694C105.381 32.4694 105.547 32.6251 105.547 32.9367V33.6212C105.547 33.978 105.37 34.1565 105.014 34.1565C104.815 34.1565 104.694 34.0457 104.651 33.8246C104.637 33.7658 104.63 33.5852 104.63 33.2825ZM105.791 31.4328C105.791 30.8771 105.972 30.411 106.335 30.0336C106.697 29.6564 107.165 29.4679 107.739 29.4679C108.322 29.4679 108.791 29.6553 109.147 30.0303C109.502 30.4051 109.68 30.8727 109.68 31.4328C109.68 31.9882 109.505 32.4513 109.154 32.8217C108.789 33.2012 108.317 33.391 107.739 33.391C107.165 33.391 106.694 33.1988 106.324 32.8149C105.969 32.4446 105.791 31.9841 105.791 31.4328ZM106.978 31.4192C106.978 31.6678 107.037 31.8844 107.156 32.0695C107.298 32.2864 107.492 32.3949 107.739 32.3949C107.985 32.3949 108.18 32.2864 108.322 32.0695C108.441 31.8844 108.499 31.6678 108.499 31.4192C108.499 31.1754 108.438 30.9632 108.315 30.7823C108.173 30.5745 107.981 30.4707 107.739 30.4707C107.492 30.4707 107.298 30.5745 107.156 30.7823C107.037 30.9584 106.978 31.1709 106.978 31.4192ZM111.438 33.0794H111.409V34.0279C111.409 34.5517 111.227 34.8138 110.862 34.8138C110.473 34.8138 110.279 34.5472 110.279 34.0143V30.3283C110.279 29.8001 110.473 29.5358 110.862 29.5358C111.09 29.5358 111.272 29.6511 111.409 29.8814C111.642 29.6328 111.957 29.5087 112.355 29.5087C112.886 29.5087 113.317 29.7073 113.649 30.1048C113.952 30.4752 114.104 30.9179 114.104 31.4328C114.104 31.8168 114.012 32.1691 113.827 32.4898C113.637 32.8285 113.37 33.0794 113.024 33.242C112.805 33.3457 112.578 33.3978 112.341 33.3978C111.995 33.3978 111.694 33.2914 111.438 33.0794ZM111.409 31.5005C111.409 31.7491 111.469 31.9521 111.588 32.1103C111.726 32.2909 111.922 32.3813 112.174 32.3813C112.427 32.3813 112.622 32.282 112.759 32.0834C112.879 31.9069 112.938 31.695 112.938 31.4464C112.938 31.2023 112.877 30.9948 112.752 30.8231C112.615 30.6241 112.421 30.5251 112.174 30.5251C111.964 30.5251 111.784 30.5916 111.635 30.7246C111.484 30.8579 111.409 31.1169 111.409 31.5005ZM114.49 31.4328C114.49 30.8771 114.671 30.411 115.034 30.0336C115.396 29.6564 115.864 29.4679 116.438 29.4679C117.021 29.4679 117.49 29.6553 117.846 30.0303C118.201 30.4051 118.379 30.8727 118.379 31.4328C118.379 31.9882 118.204 32.4513 117.853 32.8217C117.488 33.2012 117.016 33.391 116.438 33.391C115.864 33.391 115.393 33.1988 115.023 32.8149C114.668 32.4446 114.49 31.9841 114.49 31.4328ZM115.677 31.4192C115.677 31.6678 115.736 31.8844 115.855 32.0695C115.997 32.2864 116.192 32.3949 116.438 32.3949C116.685 32.3949 116.879 32.2864 117.021 32.0695C117.14 31.8844 117.199 31.6678 117.199 31.4192C117.199 31.1754 117.137 30.9632 117.014 30.7823C116.872 30.5745 116.68 30.4707 116.438 30.4707C116.192 30.4707 115.997 30.5745 115.855 30.7823C115.736 30.9584 115.677 31.1709 115.677 31.4192ZM120.123 30.2402V31.0737H120.585C120.77 31.0737 120.905 31.0512 120.99 31.006C121.104 30.9428 121.161 30.8275 121.161 30.6605C121.161 30.3803 120.955 30.2402 120.543 30.2402H120.123ZM119.633 33.323C119.196 33.323 118.978 33.0859 118.978 32.6115V30.2402C118.978 29.7705 119.196 29.5358 119.633 29.5358H120.663C121.18 29.5358 121.562 29.6012 121.808 29.7324C122.14 29.9038 122.306 30.2133 122.306 30.6605C122.306 30.9767 122.147 31.2159 121.829 31.3787C122.223 31.5773 122.419 31.8508 122.419 32.1986C122.419 32.6503 122.242 32.9618 121.886 33.1335C121.63 33.2597 121.239 33.323 120.713 33.323H119.633ZM120.123 31.7783V32.6115H120.585C121.021 32.6115 121.239 32.4738 121.239 32.1986C121.239 32.0222 121.17 31.9028 121.033 31.8392C120.943 31.7987 120.794 31.7783 120.585 31.7783H120.123ZM124.199 31.0261C124.853 31.0261 125.266 31.0397 125.436 31.0669C125.958 31.1437 126.282 31.3403 126.41 31.6563C126.467 31.7964 126.496 31.9637 126.496 32.1578C126.496 32.6095 126.318 32.921 125.962 33.0927C125.706 33.2192 125.315 33.2825 124.789 33.2825H123.708C123.272 33.2825 123.054 33.0454 123.054 32.5711V30.2402C123.054 29.7705 123.246 29.5358 123.63 29.5358C124.009 29.5358 124.199 29.7705 124.199 30.2402V31.0261ZM124.199 31.7375V32.5711H124.661C125.097 32.5711 125.315 32.4333 125.315 32.1578C125.315 31.9814 125.246 31.862 125.109 31.7987C125.019 31.7579 124.87 31.7375 124.661 31.7375H124.199ZM129.27 31.7851H129.014L127.976 33.078C127.896 33.1773 127.827 33.2441 127.77 33.2757C127.699 33.3165 127.602 33.3366 127.479 33.3366C127.327 33.3366 127.205 33.2905 127.112 33.1977C127.02 33.1052 126.974 33.0194 126.974 32.9426C126.974 32.7889 127.033 32.6467 127.152 32.5158L127.877 31.7207C127.289 31.6034 126.995 31.251 126.995 30.6626C126.995 29.9118 127.54 29.5358 128.63 29.5358H129.761C130.022 29.5358 130.199 29.5923 130.294 29.7052C130.375 29.8045 130.415 29.9827 130.415 30.2402V32.6243C130.415 33.0995 130.223 33.3366 129.839 33.3366C129.645 33.3366 129.498 33.2621 129.399 33.1119C129.313 32.9854 129.27 32.8217 129.27 32.6219V31.7851ZM129.27 31.0805V30.2402H128.811C128.378 30.2402 128.161 30.3803 128.161 30.6605C128.161 30.9404 128.378 31.0805 128.811 31.0805H129.27Z" fill="#2B3998"/>
</g>
<mask id="mask1_86_265" style="mask-type:luminance" maskUnits="userSpaceOnUse" x="-42" y="-66" width="258" height="176">
<path d="M-42 -65.9998H216V109.946H-42V-65.9998Z" fill="white"/>
</mask>
<g mask="url(#mask1_86_265)">
<path d="M28.6027 26.6536C28.391 26.6536 28.1927 26.5277 28.1164 26.3249C28.0995 26.2794 26.3819 21.7557 23.7127 18.4583C23.0682 17.6623 22.4332 17.3005 21.8292 17.3803C20.5537 17.55 19.4355 19.5619 19.1125 20.323C19.0037 20.5784 18.6997 20.6996 18.438 20.5959C18.1735 20.4915 18.0467 20.2007 18.1548 19.9456C18.2961 19.6116 19.5967 16.6719 21.6864 16.3923C22.6833 16.2592 23.6397 16.7475 24.5278 17.8444C27.3006 21.2695 29.0174 25.794 29.0891 25.9847C29.1862 26.2439 29.0477 26.5297 28.779 26.6237C28.721 26.6441 28.6613 26.6536 28.6027 26.6536Z" fill="#A7A5A6"/>
<path d="M18.9494 18.7916C19.1465 18.8829 19.3438 18.9745 19.5409 19.0659C19.95 19.3014 19.8912 19.6139 19.7094 19.9422C19.4915 20.3359 19.2681 20.7081 19.2534 21.1833C19.2421 21.549 18.8278 21.7635 18.445 21.7476C18.0105 21.7293 17.5961 21.5179 17.4031 21.1505C17.206 20.7755 17.2597 20.3427 17.6099 20.0622C17.9194 19.8146 18.1404 19.5468 18.2768 19.2089C18.3917 18.9237 18.6381 18.8164 18.9494 18.7916Z" fill="#2B3B92"/>
<path d="M19.5761 26.786C19.5295 26.786 19.482 26.7798 19.4351 26.7671C19.1606 26.6926 19.0003 26.4171 19.0775 26.1517C19.1296 25.9747 20.3787 21.7702 23.4914 17.5947C24.3087 16.4975 25.2057 15.9968 26.1596 16.1168C28.2582 16.3743 29.6146 19.6016 29.7623 19.9684C29.8656 20.2252 29.7338 20.514 29.4675 20.6136C29.2027 20.7138 28.9018 20.5867 28.7982 20.3299C28.4574 19.4854 27.2951 17.261 26.0291 17.1064C25.479 17.0384 24.9102 17.4002 24.3307 18.1769C21.3241 22.2112 20.0857 26.3805 20.0735 26.4222C20.0094 26.6421 19.802 26.786 19.5761 26.786Z" fill="#A7A5A6"/>
<path d="M28.8227 18.455C28.632 18.5649 28.4414 18.6749 28.2508 18.7848C27.8589 19.0582 27.9395 19.3638 28.1442 19.6736C28.3896 20.0454 28.6388 20.3948 28.6869 20.8668C28.724 21.2298 29.1533 21.4042 29.5345 21.3518C29.9676 21.2924 30.3666 21.0424 30.5336 20.6578C30.7043 20.2656 30.6203 19.8394 30.2504 19.5932C29.9237 19.376 29.6844 19.1303 29.5241 18.8067C29.3893 18.5333 29.1355 18.4499 28.8227 18.455Z" fill="#2B3B92"/>
<path d="M26.3517 30.0853C26.1136 31.2924 24.9062 32.0846 23.6546 31.8549C22.4031 31.6253 21.5818 30.4607 21.8199 29.2536C22.058 28.0468 23.2654 27.2544 24.517 27.484C25.7682 27.7137 26.5898 28.8782 26.3517 30.0853Z" fill="#2B3B92"/>
<path d="M20.2422 33.3356C20.2134 33.3356 20.1842 33.3344 20.1542 33.3323C17.5543 33.1207 15.3757 32.0114 13.8545 30.1236C12.0216 27.8489 11.264 24.5447 11.8282 21.2846C11.8889 20.9329 11.9266 20.5758 11.967 20.1981C12.0292 19.6137 12.093 19.0131 12.248 18.4069C10.3333 17.7785 8.98828 16.0051 8.98828 14.0277C8.98828 11.479 11.1384 9.40561 13.7809 9.40561C15.4315 9.40561 16.9371 10.2113 17.8154 11.5364C19.5842 10.5719 21.5808 10.0638 23.6178 10.0638C25.6551 10.0638 27.6516 10.5716 29.4204 11.5364C30.2994 10.2113 31.805 9.40561 33.4549 9.40561C36.0975 9.40561 38.2475 11.479 38.2475 14.0277C38.2475 16.0045 36.9037 17.7773 34.9909 18.4057C35.2238 19.2715 35.3047 20.1422 35.3834 20.9881L35.4177 21.3561C35.6733 24.0003 34.7524 26.5833 32.8907 28.4421C31.0119 30.3181 28.4309 31.2681 25.6223 31.1061C25.052 31.0739 24.6168 30.6021 24.6496 30.0521C24.683 29.502 25.1727 29.0782 25.7424 29.1142C27.9375 29.2396 29.9497 28.5068 31.4029 27.0559C32.8448 25.6159 33.5576 23.6057 33.3581 21.5414L33.3225 21.1661C33.2373 20.2465 33.157 19.3779 32.892 18.5845C32.7534 18.1731 32.8009 17.7176 33.024 17.3378C33.2459 16.9601 33.6256 16.6864 34.0651 16.588C35.2909 16.3157 36.179 15.2393 36.179 14.0277C36.179 12.5791 34.9571 11.4007 33.4549 11.4007C32.4261 11.4007 31.4954 11.954 31.025 12.8443C30.8209 13.2318 30.4544 13.5214 30.0205 13.6385C29.5976 13.754 29.1174 13.6908 28.7355 13.4635C27.1956 12.5446 25.4264 12.0592 23.6178 12.0592C21.8094 12.0592 20.0408 12.5446 18.5012 13.4629C18.1188 13.6908 17.6456 13.7546 17.2159 13.6385C16.7811 13.5205 16.4149 13.2312 16.2108 12.844C15.741 11.9537 14.8103 11.4007 13.7809 11.4007C12.2787 11.4007 11.0568 12.5791 11.0568 14.0277C11.0568 15.239 11.9449 16.3155 13.168 16.588C13.6087 16.6855 13.989 16.9589 14.2112 17.3384C14.4327 17.7123 14.4824 18.1669 14.3451 18.5822C14.1591 19.1381 14.0938 19.7518 14.0251 20.4017C13.9835 20.7936 13.9403 21.1989 13.8686 21.613C13.3978 24.3331 14.0034 27.0571 15.4879 28.8991C16.6619 30.3556 18.2901 31.1785 20.328 31.3437C20.8974 31.3901 21.32 31.8728 21.2722 32.4217C21.2265 32.9422 20.7742 33.3356 20.2422 33.3356Z" fill="#2B3B92"/>
<path d="M28.0539 28.6626C28.7664 28.4953 29.4388 28.2234 30.0504 27.8554C29.9947 27.4537 29.9058 27.0429 29.7811 26.624C29.6232 26.0944 29.0517 25.7891 28.5007 25.9413C27.9521 26.0938 27.635 26.6465 27.7931 27.1762C27.9494 27.7005 28.0358 28.1974 28.0539 28.6626Z" fill="#2B3B92"/>
<path d="M27.1094 31.3115C26.89 31.5347 26.6332 31.7333 26.3393 31.9053C24.6317 32.9053 22.1568 32.7244 20.8234 31.5031C19.4263 30.2238 19.4815 28.0425 20.9779 25.3602C21.2488 24.8749 21.0609 24.2699 20.5577 24.0089C20.0551 23.7485 19.4278 23.9291 19.1566 24.4147C16.3848 29.3809 18.4024 32.0381 19.399 32.9502C20.543 33.9977 22.1835 34.5406 23.8457 34.5406C25.0899 34.5406 26.3454 34.2362 27.4131 33.6108C28.5957 32.918 29.4084 31.9219 29.8166 30.7278C28.961 31.0443 28.0514 31.2418 27.1094 31.3115Z" fill="#2B3B92"/>
</g>
</g>
<defs>
<clipPath id="clip0_86_265">
<rect width="139" height="45" fill="white"/>
</clipPath>
</defs>
</svg>
