<svg width="23" height="23" viewBox="0 0 23 23" fill="none" xmlns="http://www.w3.org/2000/svg">
<path d="M10.4444 0.0673828C8.53517 0.314453 6.77424 1.17695 5.40861 2.53359C4.02951 3.9082 3.176 5.67813 2.9424 7.63672C2.82111 8.66543 2.87951 9.58184 3.14006 10.6689C3.90822 13.8494 6.41037 17.8025 10.2063 21.832C11.1856 22.8697 11.3293 23 11.5045 23C11.6752 23 11.9403 22.7529 12.9824 21.6299C17.1647 17.1197 19.6264 12.933 20.0576 9.5998C20.3856 7.06172 19.4557 4.40684 17.5869 2.53359C16.3022 1.24883 14.7254 0.435743 12.8701 0.112305C12.2996 0.00898552 11.0553 -0.0134754 10.4444 0.0673828ZM12.4658 4.79766C13.9258 5.19746 14.9545 6.23516 15.3453 7.70859C15.4666 8.17129 15.4621 9.11016 15.3319 9.59082C15.0668 10.5656 14.4738 11.4012 13.6742 11.9178C11.1137 13.5754 7.75803 11.8908 7.56037 8.8541C7.4885 7.74004 7.90627 6.65293 8.71486 5.83984C9.30783 5.25137 9.98166 4.89199 10.8037 4.73477C11.226 4.65391 12.0526 4.68535 12.4658 4.79766Z" fill="#EC008C"/>
</svg>
