<svg width="22" height="23" viewBox="0 0 22 23" fill="none" xmlns="http://www.w3.org/2000/svg">
<g clip-path="url(#clip0_86_382)">
<path d="M16.2788 13.1414C16.236 13.1209 14.6321 12.3311 14.3471 12.2285C14.2308 12.1867 14.1061 12.1459 13.9735 12.1459C13.757 12.1459 13.575 12.2539 13.4333 12.4659C13.2731 12.704 12.7881 13.2709 12.6383 13.4403C12.6187 13.4627 12.592 13.4894 12.576 13.4894C12.5616 13.4894 12.3134 13.3872 12.2383 13.3545C10.5178 12.6072 9.21183 10.8099 9.03276 10.5069C9.00719 10.4633 9.00612 10.4435 9.0059 10.4435C9.01219 10.4204 9.07005 10.3624 9.0999 10.3325C9.18726 10.2461 9.2819 10.1322 9.37348 10.0219C9.41683 9.96973 9.46026 9.91744 9.5029 9.86816C9.63576 9.71359 9.6949 9.59359 9.76347 9.45459L9.7994 9.38237C9.96683 9.04973 9.82383 8.76902 9.77762 8.67837C9.73969 8.60252 9.06247 6.96809 8.99047 6.79637C8.81733 6.38202 8.58855 6.18909 8.27062 6.18909C8.24112 6.18909 8.27062 6.18909 8.1469 6.1943C7.99626 6.20066 7.1759 6.30866 6.81319 6.5373C6.42855 6.7798 5.77783 7.5528 5.77783 8.91223C5.77783 10.1357 6.55426 11.2909 6.88762 11.7303C6.8959 11.7414 6.91112 11.7639 6.93319 11.7962C8.20983 13.6606 9.80133 15.0423 11.4147 15.6868C12.9679 16.3072 13.7034 16.3789 14.1215 16.3789H14.1216C14.2973 16.3789 14.438 16.3652 14.562 16.3529L14.6408 16.3454C15.1773 16.2979 16.3565 15.6869 16.6247 14.9415C16.836 14.3544 16.8917 13.713 16.7511 13.4802C16.6548 13.3219 16.4889 13.2423 16.2788 13.1414Z" fill="white"/>
<path d="M11.1953 0.5C5.23698 0.5 0.389555 5.311 0.389555 11.2245C0.389555 13.1371 0.901412 15.0094 1.87105 16.6479L0.0151263 22.1226C-0.0194452 22.2246 0.00626912 22.3375 0.0817691 22.4144C0.136269 22.47 0.210198 22.5 0.285698 22.5C0.314626 22.5 0.343769 22.4956 0.372198 22.4866L6.08077 20.6726C7.64291 21.5072 9.40848 21.9478 11.1953 21.9478C17.1531 21.9479 22 17.1374 22 11.2245C22 5.311 17.1531 0.5 11.1953 0.5ZM11.1953 19.7139C9.51391 19.7139 7.88541 19.2284 6.48556 18.3098C6.43848 18.2789 6.38384 18.263 6.32884 18.263C6.29977 18.263 6.27063 18.2674 6.24227 18.2764L3.38263 19.1854L4.30577 16.4619C4.33563 16.3738 4.3207 16.2766 4.2657 16.2014C3.1997 14.7449 2.6362 13.0239 2.6362 11.2245C2.6362 6.54286 6.47577 2.734 11.1952 2.734C15.9141 2.734 19.7532 6.54286 19.7532 11.2245C19.7533 15.9056 15.9142 19.7139 11.1953 19.7139Z" fill="white"/>
</g>
<defs>
<clipPath id="clip0_86_382">
<rect width="22" height="22" fill="white" transform="translate(0 0.5)"/>
</clipPath>
</defs>
</svg>
