<svg width="60" height="17" viewBox="0 0 60 17" fill="none" xmlns="http://www.w3.org/2000/svg">
<g clip-path="url(#clip0_86_207)">
<path d="M57.2044 14.8028C58.3815 14.8028 59.2153 14.5943 59.8365 14.1453V12.1085C59.1989 12.5415 58.4305 12.8141 57.3515 12.8141C55.5368 12.8141 54.7847 11.4349 54.7847 9.25376C54.7847 6.96037 55.7003 5.78961 57.3679 5.78961C58.3488 5.78961 59.3134 6.1264 59.8202 6.44716V4.33018C59.2807 4.0415 58.3488 3.83301 57.0736 3.83301C53.8202 3.83301 52.1362 6.1264 52.1362 9.33395C52.1526 12.8462 53.8038 14.8028 57.2044 14.8028ZM41.297 13.8726V11.8358C40.5123 12.3651 39.1717 12.8302 37.9455 12.8302C36.0818 12.8302 35.3788 11.9641 35.2643 10.2H41.4115V8.8849C41.4115 5.21225 39.7602 3.83301 37.2262 3.83301C34.1199 3.83301 32.6485 6.15848 32.6485 9.34999C32.6485 13.0226 34.4959 14.8028 37.733 14.8028C39.3515 14.8028 40.545 14.3698 41.297 13.8726ZM17.9673 4.02546V8.19527H14.5668V4.02546H12.0164V14.5943H14.5668V10.184H17.9673V14.5943H20.5177V4.02546H17.9673ZM32.0109 12.6056H30.8828V4.02546H23.4605V4.92357C23.4605 7.50565 23.297 10.8415 22.3978 12.6056H21.5804V17H23.9346V14.5943H29.6403V17H31.9946V12.6056H32.0109ZM49.4223 14.5943H52.3161L48.2289 8.90093L51.8256 4.02546H49.2589L45.6621 8.90093V4.02546H43.1117V14.5943H45.6621V9.3981L49.4223 14.5943ZM37.1608 5.78961C38.4196 5.78961 38.812 6.81603 38.812 8.14716V8.35565H35.2643C35.3297 6.67169 35.951 5.78961 37.1608 5.78961ZM28.3324 12.6056H24.7357C25.4387 11.0179 25.6349 8.13112 25.6349 6.30282V5.98206H28.3324V12.6056Z" fill="black"/>
<path d="M9.89101 14.5943H7.29155V1.97264H6.13079C4.00545 1.97264 2.89373 3.01509 2.89373 4.57075C2.89373 6.33491 3.66213 7.15283 5.24796 8.19528L6.55586 9.06132L2.79564 14.5943H0L3.3842 9.65472C1.43869 8.29151 0.343324 6.96038 0.343324 4.71509C0.343324 1.90849 2.33787 0 6.11444 0H9.87466V14.5943H9.89101Z" fill="#FC3F1D"/>
</g>
<defs>
<clipPath id="clip0_86_207">
<rect width="60" height="17" fill="white"/>
</clipPath>
</defs>
</svg>
