<svg width="119" height="119" viewBox="0 0 119 119" fill="none" xmlns="http://www.w3.org/2000/svg">
<circle cx="59.563" cy="59.563" r="59.437" fill="#FF0000"/>
<g clip-path="url(#clip0_86_307)">
<g clip-path="url(#clip1_86_307)">
<path d="M87.0026 46.6815C86.3532 44.2987 84.4464 42.4262 82.0202 41.7883C77.6272 40.6311 60.0032 40.6311 60.0032 40.6311C60.0032 40.6311 42.3795 40.6311 37.9863 41.7883C35.5601 42.4262 33.6535 44.2987 33.004 46.6815C31.8257 50.996 31.8257 60.0032 31.8257 60.0032C31.8257 60.0032 31.8257 69.0104 33.004 73.3249C33.6535 75.7077 35.5601 77.5802 37.9863 78.2179C42.3795 79.3752 60.0032 79.3752 60.0032 79.3752C60.0032 79.3752 77.6272 79.3752 82.0202 78.2179C84.4464 77.5802 86.3532 75.7077 87.0026 73.3249C88.181 69.0104 88.181 60.0032 88.181 60.0032C88.181 60.0032 88.1762 50.996 87.0026 46.6815Z" fill="white"/>
<path d="M54.3623 68.3049L69.0032 60.0039L54.3623 51.7029V68.3049Z" fill="#FC3F1D"/>
</g>
</g>
<defs>
<clipPath id="clip0_86_307">
<rect width="56.3551" height="38.7441" fill="white" transform="translate(31.8257 40.6311)"/>
</clipPath>
<clipPath id="clip1_86_307">
<rect width="56.3551" height="38.7441" fill="white" transform="translate(31.8257 40.6311)"/>
</clipPath>
</defs>
</svg>
