<svg width="159" height="55" fill="none" xmlns="http://www.w3.org/2000/svg"><g clip-path="url(#clip0_56_556)"><mask id="a" style="mask-type:luminance" maskUnits="userSpaceOnUse" x="-55" y="-76" width="305" height="208"><path d="M-55-76h304.023v207.332H-55V-76z" fill="#fff"/></mask><g mask="url(#a)"><path d="M144.496 22.347c0-.913-.146-1.721-.44-2.427a5.013 5.013 0 00-1.3-1.815 5.793 5.793 0 00-2.06-1.183c-.809-.27-1.741-.406-2.795-.406h-1.381v11.661h1.381c1.166 0 2.176-.15 3.031-.448.822-.287 1.51-.714 2.064-1.28l.01-.01a4.936 4.936 0 001.11-1.748c.253-.681.38-1.463.38-2.344zm-28.029 9.027h-1.507c-.532 0-.965-.405-.986-.913l-1.16-8.646-4.713 9.654a1.002 1.002 0 01-1.784-.002l-4.712-9.652-1.17 8.726c-.063.48-.487.83-.976.83v.003h-1.507c-.545 0-.987-.426-.987-.952 0-.07.007-.137.022-.202l2.262-16.725c.07-.52.564-.886 1.103-.818.358.045.647.27.778.57l6.079 12.53 6.094-12.56a1 1 0 011.308-.458.95.95 0 01.559.736l2.273 16.804c.07.52-.31.996-.849 1.064a1.041 1.041 0 01-.127.008v.003zm13.037 0h-8.97c-.545 0-.987-.426-.987-.952v-16.15c0-.526.442-.953.987-.953h8.97c.546 0 .988.427.988.953v1.292c0 .526-.442.952-.988.952h-6.356v3.263h6.093c.546 0 .988.427.988.953v1.292c0 .526-.442.952-.988.952h-6.093v5.201h6.356c.546 0 .988.427.988.953v1.292c0 .526-.442.952-.988.952zm18.69-9.027c0 2.306-.725 4.279-2.174 5.92h.001c-.919 1.042-2.055 1.823-3.41 2.344-1.322.509-2.837.763-4.542.763h-4.163c-.545 0-.987-.426-.987-.952v-16.15c0-.526.442-.953.987-.953h4.163c1.553 0 2.954.218 4.204.654a9.017 9.017 0 013.307 2.002 8.192 8.192 0 011.964 2.86c.433 1.063.65 2.233.65 3.512z" fill="#6AC62F"/><path d="M95.73 14.993l-3.18 5.014a1.005 1.005 0 01-1.294.35l-.794-.35a.936.936 0 01-.488-1.254h-.002l2.512-5.365c.224-.478.807-.691 1.304-.476.023.01.046.021.068.033l1.47.701a.935.935 0 01.405 1.347z" fill="#00ADEF"/><path d="M88.868 27.7a3.813 3.813 0 01-1.032 2.654 4.17 4.17 0 01-1.64 1.086c-.626.233-1.332.35-2.119.35a5.6 5.6 0 01-1.18-.124 4.628 4.628 0 01-1.09-.377l-.002-.001v.001a4.407 4.407 0 01-1.35-1.049 5.546 5.546 0 01-.928-1.514.938.938 0 01.494-1.218l1.133-.58a1.003 1.003 0 011.331.398c.033.06.058.122.077.185a2.4 2.4 0 00.25.52c.094.145.207.273.338.385.018.015.035.03.051.046.125.099.26.174.407.225.173.06.377.09.613.09.439 0 .751-.1.938-.303l.022-.023c.153-.17.229-.406.229-.706 0-.402-.312-.718-.936-.948l-.905-.266a38.094 38.094 0 01-.614-.192 6.627 6.627 0 01-1.114-.463 4.08 4.08 0 01-.902-.64.941.941 0 01-.046-.048 3.114 3.114 0 01-.712-1.053 3.472 3.472 0 01-.249-1.327c0-.553.108-1.063.325-1.531.22-.474.543-.885.971-1.236a4.248 4.248 0 011.392-.755 5.24 5.24 0 011.625-.245c.37 0 .732.038 1.085.113a4.138 4.138 0 011.056.376c.415.218.787.502 1.117.854.332.353.618.77.858 1.254a.932.932 0 01-.424 1.246l-1.077.554a1.002 1.002 0 01-1.37-.47l-.003.001a1.748 1.748 0 00-.243-.415 1.355 1.355 0 00-.677-.443 1.59 1.59 0 00-.442-.057c-.266 0-.466.061-.6.185a.539.539 0 00-.137.183.69.69 0 00-.046.271c0 .12.02.213.058.28a.486.486 0 00.186.164c.04.017.174.064.4.142.3.103.712.237 1.233.402.476.15.904.317 1.283.5a5.066 5.066 0 011.052.662c.429.355.754.77.974 1.247.227.49.34 1.025.34 1.61z" fill="#FBC707"/><path d="M74.62 25.415c0-.506-.07-.966-.212-1.38a3.355 3.355 0 00-.616-1.089 2.481 2.481 0 00-.865-.674 2.616 2.616 0 00-1.099-.219c-.486 0-.91.086-1.272.256a2.49 2.49 0 00-.923.761 3.479 3.479 0 00-.553 1.056 4.205 4.205 0 00-.187 1.29c0 .514.071.98.213 1.395.139.405.343.766.612 1.082.252.296.544.516.877.661.34.149.735.224 1.186.224.433 0 .815-.07 1.146-.21.324-.136.616-.347.876-.632a2.88 2.88 0 00.602-1.035c.144-.426.216-.921.216-1.486zm2.328 5.96h-1.34a.996.996 0 01-.837-.448 5.744 5.744 0 01-1.622.69c-.453.115-.91.173-1.368.173a7.03 7.03 0 01-2.367-.389 6.148 6.148 0 01-2.023-1.195 5.721 5.721 0 01-1.506-2.11c-.332-.803-.498-1.697-.498-2.68 0-.896.149-1.724.445-2.484.3-.769.75-1.455 1.348-2.059a5.958 5.958 0 012.09-1.378c.777-.302 1.63-.454 2.559-.454a5.63 5.63 0 012.152.401l.006.003.001-.003c.186.078.365.165.537.263v-6.217c0-.527.442-.953.987-.953h1.436c.545 0 .987.426.987.953v16.934c0 .526-.442.952-.987.952z" fill="#EC008C"/><path d="M62.547 31.374h-1.435c-.545 0-.988-.426-.988-.952v-9.51c0-.525.443-.952.988-.952h1.435c.546 0 .988.427.988.953v9.509c0 .526-.442.952-.988.952zm1.37-14.357a1.94 1.94 0 01-.65 1.457 2.087 2.087 0 01-1.437.557c-.266 0-.523-.046-.773-.14a2.095 2.095 0 01-.672-.405 1.868 1.868 0 01-.49-.68 2.028 2.028 0 01-.153-.789 1.999 1.999 0 01.565-1.393c.202-.21.437-.368.705-.472.254-.1.527-.148.818-.148.28 0 .546.047.795.142a2.006 2.006 0 011.145 1.104c.098.24.147.496.147.767z" fill="#F47216"/><path d="M58.121 31.374h-2.177a1 1 0 01-.767-.353l-5.732-6.006v5.407c0 .526-.442.952-.988.952h-1.626c-.546 0-.988-.426-.988-.952v-16.15c0-.526.442-.953.988-.953h1.626c.546 0 .988.427.988.953v5.14l5.79-5.799a.999.999 0 01.71-.291v-.003h2.009c.545 0 .987.427.987.953 0 .285-.13.54-.335.715l-7.23 7.12 7.463 7.663a.926.926 0 01-.043 1.343 1 1 0 01-.675.259v.002z" fill="#00ADEF"/><path d="M47.697 40.035h1.458v-2.427h-1.013c-.207 0-.31.098-.31.295v1.613c0 .165-.046.338-.135.519zm2.296.958H46.91c0 .372-.006.588-.017.647-.05.255-.195.383-.436.383-.419 0-.628-.21-.628-.631v-.822c0-.272.066-.437.2-.495a7.9 7.9 0 01.36-.072c.135-.059.202-.221.202-.487v-1.629c0-.48.134-.822.402-1.03.246-.186.626-.28 1.14-.28h1.684c.274 0 .461.091.562.272.072.128.108.33.108.607v2.579c.391 0 .587.183.587.55v.807c0 .42-.21.63-.629.63-.234 0-.377-.13-.427-.39-.017-.07-.025-.282-.025-.64zm2.759-1.82a.77.77 0 00.326.574c.19.133.422.2.695.2.23 0 .506-.07.83-.212.324-.14.525-.211.603-.211.358 0 .537.167.537.503 0 .127-.05.255-.151.383-.18.234-.464.412-.855.535-.33.106-.673.16-1.03.16-.67 0-1.229-.22-1.676-.659-.447-.44-.67-.98-.67-1.625a2.3 2.3 0 01.64-1.636c.428-.453.974-.68 1.639-.68.33 0 .628.06.896.177.385.17.701.422.947.758.245.335.368.7.368 1.093 0 .214-.08.376-.242.488-.14.101-.325.151-.554.151h-2.303zm-.017-.847h1.784a.78.78 0 00-.272-.55.88.88 0 00-.599-.216c-.24 0-.442.07-.603.211a.954.954 0 00-.31.555zm4.643-.639H56.8c-.563 0-.846-.185-.846-.554 0-.37.283-.555.846-.555h2.497c.57 0 .855.185.855.555 0 .37-.287.554-.86.554h-.581v2.427c0 .628-.222.943-.666.943-.445 0-.667-.315-.667-.943v-2.426zm2.944 1.126c0-.676.212-1.228.636-1.656.425-.429.989-.643 1.693-.643.368 0 .69.053.963.16.369.148.554.372.554.67a.544.544 0 01-.562.551 1.2 1.2 0 01-.415-.1 1.48 1.48 0 00-.54-.1c-.307 0-.545.112-.713.336-.15.202-.225.455-.225.758 0 .32.078.575.234.766.179.214.43.32.754.32.19 0 .366-.032.528-.096.162-.063.296-.095.402-.095.156 0 .284.054.381.163.098.11.147.241.147.395 0 .261-.19.482-.57.663-.273.128-.614.192-1.022.192-.681 0-1.229-.221-1.642-.663-.402-.426-.603-.966-.603-1.62zm6.068.383l-.201.144v.77c0 .631-.224.947-.67.947-.453 0-.68-.315-.68-.944v-2.592c0-.63.227-.943.68-.943.34 0 .55.183.628.55.028.112.042.42.042.927l1.156-1.127c.24-.233.472-.35.695-.35a.62.62 0 01.403.136.44.44 0 01.167.359c0 .213-.114.42-.344.623l-.913.806 1.266 1.413c.178.202.267.413.267.63a.434.434 0 01-.196.372.744.744 0 01-.44.14c-.268 0-.503-.128-.704-.385l-1.156-1.476zm4.284-.247l1.625-1.437c0-.298.033-.514.1-.647.101-.191.29-.287.57-.287.28 0 .47.096.57.287.067.135.1.35.1.648v2.6c0 .298-.033.514-.1.648-.1.197-.288.296-.566.296-.278 0-.466-.099-.565-.297-.067-.133-.1-.35-.1-.65v-1.265l-1.63 1.265c0 .295-.034.512-.1.65-.103.198-.29.297-.565.297-.46 0-.689-.315-.689-.944v-2.6c0-.287.037-.5.11-.64.106-.197.298-.295.578-.295.273 0 .46.096.561.287.067.133.1.349.1.647v1.437zm3.747 1.164v-2.6c0-.287.036-.5.109-.64.106-.197.299-.295.578-.295.273 0 .46.096.561.287.067.133.1.349.1.647v1.437l1.626-1.972c.218-.266.442-.4.67-.4.28 0 .47.097.57.288.067.135.1.35.1.648v2.6c0 .298-.032.514-.1.648-.099.197-.287.296-.566.296-.277 0-.466-.099-.565-.297-.067-.133-.1-.35-.1-.65v-1.32l-1.63 1.874c-.23.262-.45.393-.665.393-.459 0-.688-.315-.688-.944zm2.161-3.91c-.38 0-.692-.094-.938-.28-.229-.17-.344-.359-.344-.567 0-.271.134-.407.403-.407.15 0 .284.08.398.24a.559.559 0 00.481.239c.219 0 .38-.08.486-.24.107-.16.232-.24.377-.24.274 0 .41.137.41.408 0 .272-.147.487-.443.647-.246.133-.522.2-.83.2zm7.15 3.832h1.482V37.52c0-.628.222-.942.667-.942.444 0 .666.314.666.942v2.515c.39 0 .586.183.586.55v.807c0 .42-.21.63-.629.63-.234 0-.376-.13-.426-.39-.017-.07-.026-.282-.026-.64h-2.815a.746.746 0 01-.628-.294 1.053 1.053 0 01-.21-.663V37.52c0-.628.222-.942.666-.942.445 0 .666.314.666.942v2.515zm5.037-.863a.77.77 0 00.327.575c.19.133.421.2.695.2.23 0 .506-.07.83-.212.324-.14.525-.211.603-.211.358 0 .536.167.536.503 0 .127-.05.255-.15.383-.18.234-.464.412-.855.535-.33.106-.673.16-1.03.16-.671 0-1.23-.22-1.676-.659-.447-.44-.67-.98-.67-1.625 0-.639.213-1.184.64-1.636.428-.453.974-.68 1.638-.68.33 0 .629.06.897.177.385.17.7.422.946.758.246.335.369.7.369 1.093 0 .214-.08.376-.243.488-.14.101-.324.151-.553.151H88.77zm-.017-.846h1.785a.78.78 0 00-.272-.55.88.88 0 00-.6-.216c-.24 0-.44.07-.602.211a.952.952 0 00-.31.555zm5.105.894v.89c0 .631-.22.947-.662.947-.458 0-.687-.315-.687-.944v-2.6c0-.624.23-.935.687-.935.442 0 .662.311.662.934v.798h1.492v-.798c0-.623.221-.934.666-.934.443 0 .665.311.665.935v2.6c0 .63-.222.944-.665.944-.445 0-.666-.316-.666-.947v-.89h-1.492zm4.636-1.532h-.578c-.565 0-.847-.186-.847-.555 0-.37.282-.555.847-.555h2.496c.57 0 .855.185.855.555 0 .37-.286.554-.86.554h-.581v2.427c0 .628-.222.943-.666.943-.444 0-.666-.315-.666-.943v-2.426zm4.551 3.066h-.033v1.117c0 .617-.215.926-.645.926-.459 0-.688-.314-.688-.942v-4.343c0-.623.229-.934.688-.934.268 0 .483.136.645.407.274-.293.645-.44 1.114-.44.626 0 1.134.235 1.525.703.358.437.537.959.537 1.565 0 .453-.11.868-.328 1.246a2.064 2.064 0 01-.946.886 1.85 1.85 0 01-.805.184 1.62 1.62 0 01-1.064-.375zm-.033-1.861c0 .293.07.532.211.718.162.213.392.32.69.32a.79.79 0 00.689-.351c.142-.208.211-.458.211-.75 0-.288-.072-.533-.219-.735a.782.782 0 00-.681-.351.925.925 0 00-.636.235c-.177.157-.265.462-.265.914zm7.434-.08c0-.282.215-.423.645-.423.301 0 .497-.016.586-.048.173-.058.26-.205.26-.439s-.073-.394-.218-.48c-.106-.058-.285-.087-.536-.087-.196 0-.394.035-.595.104-.218.074-.383.112-.494.112-.33 0-.495-.147-.495-.44 0-.41.562-.614 1.684-.614.626 0 1.092.085 1.399.255.403.218.604.602.604 1.15 0 .373-.187.655-.561.846.446.23.67.551.67.967 0 .936-.704 1.405-2.112 1.405-1.201 0-1.801-.221-1.801-.663 0-.271.157-.407.469-.407.095 0 .268.04.52.12.251.08.522.119.812.119.481 0 .721-.191.721-.574 0-.176-.045-.301-.134-.376-.089-.074-.265-.114-.528-.12-.324-.005-.525-.018-.603-.04-.196-.047-.293-.17-.293-.367zm5.046 1.222h1.457v-2.427h-1.012c-.208 0-.312.098-.312.295v1.613c0 .165-.044.338-.133.519zm2.295.958h-3.083c0 .372-.006.588-.017.647-.051.255-.195.383-.436.383-.418 0-.628-.21-.628-.631v-.822c0-.272.067-.437.201-.495a7.39 7.39 0 01.36-.072c.135-.059.201-.221.201-.487v-1.629c0-.48.135-.822.403-1.03.245-.186.625-.28 1.139-.28h1.684c.274 0 .461.091.561.272.073.128.109.33.109.607v2.579c.391 0 .587.183.587.55v.807c0 .42-.209.63-.629.63-.234 0-.376-.13-.427-.39-.017-.07-.025-.282-.025-.64zm1.368-2.18c0-.655.214-1.204.641-1.649.427-.444.979-.666 1.654-.666.688 0 1.24.22 1.66.663.418.441.628.992.628 1.652 0 .655-.207 1.2-.62 1.637-.43.447-.986.67-1.668.67-.675 0-1.231-.226-1.667-.678-.418-.437-.628-.98-.628-1.629zm1.399-.016c0 .293.07.548.209.766.168.256.397.384.687.384.291 0 .52-.128.688-.384.139-.218.209-.473.209-.766 0-.287-.073-.537-.217-.75a.784.784 0 00-.68-.367.79.79 0 00-.687.367 1.318 1.318 0 00-.209.75zm5.255 1.957h-.033v1.117c0 .617-.215.926-.645.926-.458 0-.687-.314-.687-.942v-4.343c0-.623.229-.934.687-.934.268 0 .483.136.645.407.274-.293.645-.44 1.114-.44.626 0 1.134.235 1.525.703.357.437.537.959.537 1.565 0 .453-.11.868-.328 1.246a2.064 2.064 0 01-.946.886 1.85 1.85 0 01-.805.184 1.62 1.62 0 01-1.064-.375zm-.033-1.861c0 .293.07.532.211.718.162.213.392.32.69.32a.79.79 0 00.689-.351c.141-.208.211-.458.211-.75 0-.288-.072-.533-.219-.735a.782.782 0 00-.681-.351.923.923 0 00-.636.235c-.177.157-.265.462-.265.914zm3.63-.08c0-.655.214-1.204.641-1.649.427-.444.978-.666 1.654-.666.688 0 1.241.22 1.659.663.419.441.629.992.629 1.652 0 .655-.207 1.2-.62 1.637-.43.447-.986.67-1.668.67-.676 0-1.231-.226-1.667-.678-.419-.437-.628-.98-.628-1.629zm1.399-.016c0 .293.069.548.209.766.168.256.397.384.687.384.291 0 .52-.128.688-.384.139-.218.209-.473.209-.766a1.3 1.3 0 00-.218-.75.782.782 0 00-.679-.367.79.79 0 00-.687.367 1.31 1.31 0 00-.209.75zm5.239-1.39v.983h.544c.218 0 .377-.026.478-.08.134-.074.201-.21.201-.407 0-.33-.243-.495-.729-.495h-.494zm-.578 3.634c-.514 0-.771-.28-.771-.839v-2.794c0-.554.257-.83.771-.83h1.214c.609 0 1.059.077 1.349.231.391.203.587.567.587 1.094 0 .373-.187.655-.561.846.463.234.695.557.695.967 0 .532-.21.899-.628 1.101-.302.149-.763.224-1.383.224h-1.273zm.578-1.82v.981h.544c.514 0 .771-.162.771-.486 0-.208-.081-.349-.243-.424-.106-.048-.282-.072-.528-.072h-.544zm4.803-.887c.771 0 1.257.016 1.458.048.614.09.997.322 1.147.695.068.165.101.362.101.59 0 .533-.209.9-.628 1.102-.302.15-.763.224-1.383.224h-1.273c-.514 0-.771-.28-.771-.839v-2.746c0-.554.226-.83.679-.83.446 0 .67.276.67.83v.926zm0 .838v.983h.544c.514 0 .771-.163.771-.487 0-.208-.081-.35-.243-.424-.106-.048-.282-.072-.528-.072h-.544zm5.976.056h-.302l-1.223 1.524a.966.966 0 01-.243.233.69.69 0 01-.343.072.583.583 0 01-.432-.164c-.109-.11-.163-.21-.163-.3 0-.182.069-.35.209-.504l.855-.936c-.693-.139-1.039-.554-1.039-1.247 0-.885.642-1.328 1.927-1.328h1.332c.307 0 .517.066.628.2.095.117.143.327.143.63v2.81c0 .56-.226.839-.679.839a.582.582 0 01-.519-.265c-.101-.15-.151-.342-.151-.578v-.986zm0-.83v-.99h-.542c-.51 0-.765.165-.765.495 0 .33.255.495.765.495h.542z" fill="#2B3998"/></g><mask id="b" style="mask-type:luminance" maskUnits="userSpaceOnUse" x="-55" y="-76" width="305" height="208"><path d="M-55-76h304.023v207.332H-55V-76z" fill="#fff"/></mask><g mask="url(#b)"><path d="M28.197 33.182a.609.609 0 01-.574-.388c-.02-.053-2.044-5.384-5.189-9.27-.76-.938-1.508-1.364-2.22-1.27-1.502.2-2.82 2.571-3.2 3.468a.62.62 0 01-.796.321.58.58 0 01-.333-.766c.166-.393 1.699-3.858 4.161-4.187 1.175-.157 2.302.419 3.349 1.711 3.267 4.036 5.29 9.368 5.375 9.592a.582.582 0 01-.366.754.626.626 0 01-.207.035z" fill="#A7A5A6"/><path d="M16.822 23.917l.697.323c.482.278.412.646.198 1.033-.256.464-.52.902-.537 1.462-.013.431-.502.684-.953.665-.512-.021-1-.27-1.228-.703-.232-.442-.168-.952.244-1.283.365-.292.625-.607.786-1.005.136-.336.426-.463.793-.492z" fill="#2B3B92"/><path d="M17.56 33.337a.634.634 0 01-.166-.022.586.586 0 01-.421-.725c.061-.209 1.533-5.163 5.2-10.084.964-1.292 2.02-1.882 3.145-1.741 2.473.303 4.071 4.106 4.245 4.539a.581.581 0 01-.347.76.617.617 0 01-.789-.334c-.401-.995-1.771-3.617-3.263-3.799-.648-.08-1.318.346-2.001 1.262-3.543 4.753-5.002 9.666-5.017 9.716a.607.607 0 01-.586.428z" fill="#A7A5A6"/><path d="M28.456 23.52l-.674.39c-.462.321-.367.681-.125 1.046.289.439.582.85.64 1.407.043.427.549.633.998.571.51-.07.98-.365 1.177-.818.201-.462.102-.964-.334-1.254-.385-.256-.667-.546-.855-.927-.16-.322-.458-.42-.827-.415zm-2.912 13.705c-.28 1.423-1.703 2.356-3.178 2.086-1.475-.27-2.442-1.643-2.162-3.066.28-1.422 1.704-2.355 3.178-2.085 1.475.27 2.443 1.643 2.162 3.066z" fill="#2B3B92"/><path d="M18.345 41.056c-.034 0-.068-.002-.104-.004-3.063-.25-5.63-1.557-7.423-3.781-2.16-2.68-3.053-6.574-2.388-10.416.072-.415.116-.835.164-1.28.073-.689.148-1.397.33-2.111-2.256-.74-3.84-2.83-3.84-5.16 0-3.004 2.533-5.447 5.647-5.447 1.945 0 3.72.95 4.754 2.51a14.287 14.287 0 016.838-1.734c2.4 0 4.753.598 6.837 1.735 1.036-1.562 2.81-2.511 4.755-2.511 3.114 0 5.647 2.443 5.647 5.447 0 2.329-1.583 4.418-3.837 5.159.274 1.02.37 2.046.462 3.043l.04.433c.302 3.116-.783 6.16-2.977 8.35-2.214 2.21-5.256 3.33-8.565 3.14-.672-.038-1.185-.594-1.146-1.242.039-.649.616-1.148 1.287-1.106 2.587.148 4.958-.715 6.67-2.425 1.7-1.697 2.54-4.066 2.305-6.498l-.042-.443c-.1-1.083-.195-2.107-.508-3.042a1.781 1.781 0 01.156-1.469 1.905 1.905 0 011.227-.883c1.444-.321 2.49-1.59 2.49-3.017 0-1.707-1.44-3.096-3.21-3.096a3.219 3.219 0 00-2.863 1.701c-.24.457-.672.798-1.183.936a1.99 1.99 0 01-1.515-.206 11.768 11.768 0 00-6.03-1.655c-2.131 0-4.215.572-6.03 1.654a1.98 1.98 0 01-1.514.207 1.897 1.897 0 01-1.185-.936 3.217 3.217 0 00-2.863-1.701c-1.77 0-3.21 1.389-3.21 3.096 0 1.427 1.047 2.695 2.488 3.017.52.114.967.437 1.23.884.26.44.319.976.157 1.466-.22.655-.296 1.378-.377 2.144-.05.461-.1.939-.185 1.427-.554 3.205.16 6.415 1.909 8.586 1.383 1.716 3.302 2.686 5.703 2.88.671.055 1.169.624 1.113 1.27-.054.614-.587 1.078-1.214 1.078z" fill="#2B3B92"/><path d="M27.55 35.549a8.183 8.183 0 002.353-.951 9.805 9.805 0 00-.318-1.451c-.186-.624-.86-.984-1.508-.805-.647.18-1.02.831-.834 1.455.184.618.286 1.204.307 1.752zm-1.113 3.121a4.339 4.339 0 01-.907.7c-2.012 1.178-4.929.965-6.5-.474-1.646-1.507-1.581-4.078.182-7.239a1.154 1.154 0 00-.495-1.592c-.592-.307-1.332-.094-1.651.478-3.266 5.852-.889 8.984.285 10.058 1.349 1.235 3.282 1.875 5.24 1.875 1.466 0 2.946-.36 4.204-1.096 1.394-.817 2.351-1.99 2.832-3.397-1.008.373-2.08.605-3.19.688z" fill="#2B3B92"/></g></g><defs><clipPath id="clip0_56_556"><path fill="#fff" d="M0 0h159v55H0z"/></clipPath></defs></svg>