<svg width="23" height="23" fill="none" xmlns="http://www.w3.org/2000/svg"><g clip-path="url(#clip0_86_30)"><path d="M7.03.027l-.337.067c-.965.198-1.927 1.011-2.336 1.972a3.366 3.366 0 00.257 3.086l.152.239H3.333c-.79 0-1.54.022-1.675.045A2.043 2.043 0 00.045 7.048c-.063.324-.058 1.829.004 2.125.122.562.517 1.092 1.007 1.343l.292.153v5.215c0 3.36.018 5.301.045 5.458.152.809.804 1.46 1.612 1.613.333.063 16.657.063 16.99 0a2.043 2.043 0 001.613-1.613c.026-.157.044-2.098.044-5.458V10.67l.292-.153c.49-.251.885-.781 1.007-1.343.063-.296.067-1.801.004-2.125a2.043 2.043 0 00-1.613-1.612c-.134-.023-.884-.045-1.675-.045h-1.433l.153-.239c.58-.902.678-2.088.256-3.086-.41-.961-1.303-1.72-2.336-1.98-.364-.09-1.294-.082-1.662.022-.54.144-.935.373-1.33.768-.584.58-.944 1.217-1.527 2.682-.149.364-.274.665-.288.665-.013 0-.14-.301-.287-.665-.584-1.465-.944-2.103-1.528-2.682-.39-.39-.79-.624-1.307-.764C8.118.04 7.215-.018 7.03.027zm1.182 1.446c.678.26 1.046.836 1.945 3.05l.35.868H8.922c-.894 0-1.694-.018-1.829-.045a2.03 2.03 0 01-1.621-1.68c-.171-1.02.557-2.053 1.585-2.273.306-.063.88-.023 1.155.08zm7.695-.08a2.03 2.03 0 011.622 1.68c.17 1.037-.566 2.07-1.622 2.273-.135.027-.934.045-1.828.045h-1.586l.35-.867c.737-1.815 1.087-2.462 1.528-2.808.404-.319.947-.436 1.536-.323zM8.805 8.086v1.348h-3.46c-3.382 0-3.467 0-3.638-.09-.314-.162-.36-.315-.36-1.258 0-.934.046-1.096.351-1.253.162-.09.27-.09 3.639-.095h3.468v1.348zm4.043 6.11v7.456h-2.696V6.738h2.696v7.457zm8.445-7.368c.315.162.36.315.36 1.258 0 .943-.045 1.096-.36 1.258-.17.09-.256.09-3.639.09h-3.459V6.738h3.46c3.382 0 3.467 0 3.638.09zM8.805 16.217v5.435H6.02c-2.705 0-2.795-.004-2.965-.09a.602.602 0 01-.27-.27c-.09-.174-.09-.25-.09-5.345v-5.166h6.11v5.436zm11.5-.27c0 5.094 0 5.17-.09 5.346a.602.602 0 01-.27.27c-.17.085-.26.09-2.965.09h-2.785V10.78h6.11v5.166z" fill="#EC008C"/></g><defs><clipPath id="clip0_86_30"><path fill="#fff" d="M0 0h23v23H0z"/></clipPath></defs></svg>