<svg width="139" height="45" fill="none" xmlns="http://www.w3.org/2000/svg"><g clip-path="url(#clip0_86_265)"><mask id="a" style="mask-type:luminance" maskUnits="userSpaceOnUse" x="-42" y="-66" width="258" height="176"><path d="M-42-66h258v175.946H-42V-66z" fill="#fff"/></mask><g mask="url(#a)"><path d="M127.297 17.46c0-.775-.125-1.461-.374-2.06a4.244 4.244 0 00-1.103-1.54 4.92 4.92 0 00-1.748-1.005c-.687-.23-1.478-.344-2.372-.344h-1.172v9.896h1.172c.989 0 1.847-.127 2.572-.38.697-.244 1.282-.606 1.752-1.087l.008-.008c.419-.427.733-.922.942-1.483.215-.579.323-1.242.323-1.99zm-23.786 7.66h-1.279a.824.824 0 01-.837-.775l-.984-7.338-4 8.194a.85.85 0 01-1.514-.002L90.9 17.007l-.993 7.406a.825.825 0 01-.829.704v.003H87.8c-.463 0-.838-.362-.838-.808a.74.74 0 01.019-.171L88.9 9.947c.06-.44.479-.751.936-.694a.83.83 0 01.66.484l5.16 10.632 5.171-10.658a.848.848 0 011.11-.388c.268.12.438.361.474.625l1.929 14.26c.06.44-.263.845-.72.902a.916.916 0 01-.108.007v.003zm11.063 0h-7.612c-.463 0-.838-.362-.838-.808V10.607c0-.447.375-.809.838-.809h7.612c.463 0 .838.362.838.809v1.096c0 .446-.375.808-.838.808h-5.394v2.77h5.171c.463 0 .838.361.838.807v1.097c0 .446-.375.808-.838.808h-5.171v4.414h5.394c.463 0 .838.362.838.808v1.097c0 .446-.375.808-.838.808zm15.86-7.66c0 1.956-.614 3.63-1.844 5.023h.001a7.27 7.27 0 01-2.894 1.99c-1.122.431-2.407.647-3.855.647h-3.532c-.463 0-.838-.362-.838-.808V10.607c0-.447.375-.809.838-.809h3.532c1.318 0 2.508.185 3.568.555a7.66 7.66 0 012.807 1.699 6.952 6.952 0 011.666 2.426c.368.903.551 1.896.551 2.981z" fill="#6AC62F"/><path d="M85.913 11.219l-2.7 4.255a.853.853 0 01-1.097.296l-.674-.297a.794.794 0 01-.414-1.063h-.001l2.131-4.553a.85.85 0 011.164-.376l1.248.595a.793.793 0 01.343 1.143z" fill="#00ADEF"/><path d="M80.09 22.001a3.236 3.236 0 01-.877 2.252 3.53 3.53 0 01-1.39.922c-.532.198-1.132.297-1.8.297-.342 0-.676-.035-1.001-.105a3.924 3.924 0 01-.924-.32h-.003a3.74 3.74 0 01-1.145-.89 4.706 4.706 0 01-.788-1.285.796.796 0 01.42-1.033l.962-.492a.851.851 0 011.129.337.81.81 0 01.065.157c.058.165.128.312.212.44a1.5 1.5 0 00.287.328c.016.013.03.026.044.04.105.083.22.147.344.19.147.051.32.077.52.077.373 0 .639-.086.797-.257l.018-.02c.13-.145.195-.344.195-.599 0-.341-.265-.61-.794-.804l-.768-.226a32.15 32.15 0 01-.521-.164 5.636 5.636 0 01-.946-.392 3.465 3.465 0 01-.804-.584 2.644 2.644 0 01-.605-.894 2.946 2.946 0 01-.21-1.125c0-.47.091-.903.275-1.3.186-.402.46-.751.824-1.049.347-.284.74-.497 1.181-.64a4.446 4.446 0 011.379-.208c.315 0 .622.032.92.095a3.513 3.513 0 01.897.32c.352.184.668.426.948.724.282.3.524.654.728 1.064a.791.791 0 01-.36 1.058l-.913.47a.85.85 0 01-1.163-.4l-.002.002a1.484 1.484 0 00-.207-.352 1.155 1.155 0 00-.574-.376 1.35 1.35 0 00-.375-.049c-.226 0-.396.052-.51.158a.459.459 0 00-.116.155.584.584 0 00-.039.23c0 .101.017.18.05.236a.41.41 0 00.157.14 42.59 42.59 0 001.386.462c.404.127.767.269 1.089.424a4.299 4.299 0 01.893.562c.363.301.639.654.826 1.058.192.415.288.87.288 1.366z" fill="#FBC707"/><path d="M68 20.063c0-.43-.061-.82-.181-1.172a2.85 2.85 0 00-.523-.924 2.108 2.108 0 00-.734-.572 2.221 2.221 0 00-.932-.185 2.52 2.52 0 00-1.08.216 2.114 2.114 0 00-.783.647c-.21.274-.366.573-.47.895-.105.33-.158.695-.158 1.095 0 .437.06.831.18 1.184.118.344.291.65.52.918.214.251.462.438.744.562.289.126.624.19 1.006.19.368 0 .692-.06.973-.179.275-.115.523-.294.743-.536a2.42 2.42 0 00.511-.879c.122-.36.183-.781.183-1.26zm1.974 5.057h-1.137a.845.845 0 01-.71-.38 4.877 4.877 0 01-1.377.586 4.722 4.722 0 01-1.16.146c-.72 0-1.39-.11-2.01-.33a5.217 5.217 0 01-1.716-1.014 4.855 4.855 0 01-1.278-1.79c-.282-.682-.422-1.44-.422-2.275 0-.76.125-1.463.377-2.107a5.103 5.103 0 011.144-1.748 5.056 5.056 0 011.774-1.169 5.93 5.93 0 012.17-.385c.664 0 1.273.113 1.827.34l.006.003v-.003c.158.066.31.14.456.223V9.941c0-.447.375-.809.838-.809h1.218c.463 0 .838.362.838.809v14.37c0 .447-.375.809-.838.809z" fill="#EC008C"/><path d="M57.753 25.12h-1.218c-.462 0-.838-.362-.838-.808v-8.07c0-.446.376-.808.838-.808h1.218c.463 0 .838.362.838.808v8.07c0 .446-.375.808-.838.808zm1.163-12.184a1.645 1.645 0 01-.553 1.237 1.771 1.771 0 01-1.219.472c-.225 0-.444-.04-.656-.118a1.78 1.78 0 01-.57-.345 1.586 1.586 0 01-.415-.576 1.72 1.72 0 01.947-2.252c.216-.085.447-.127.694-.127.239 0 .464.04.675.12.223.086.42.21.587.372.17.162.297.351.385.567.083.203.125.42.125.65z" fill="#F47216"/><path d="M53.998 25.12H52.15a.848.848 0 01-.65-.3l-4.866-5.096v4.588c0 .446-.375.808-.837.808h-1.381c-.463 0-.838-.362-.838-.808V10.606c0-.446.375-.808.838-.808h1.38c.463 0 .838.362.838.808v4.362l4.914-4.92a.848.848 0 01.602-.248v-.002h1.705c.463 0 .839.362.839.808 0 .242-.11.46-.285.607l-6.135 6.042 6.332 6.504c.317.325.3.835-.036 1.14a.85.85 0 01-.572.219v.002z" fill="#00ADEF"/><path d="M45.151 32.47h1.237v-2.06h-.859c-.176 0-.264.083-.264.25v1.369a.99.99 0 01-.114.44zm1.948.813h-2.616c0 .316-.005.498-.014.548-.043.217-.166.325-.37.325-.356 0-.533-.178-.533-.535v-.698c0-.23.056-.37.17-.42.1-.022.202-.042.306-.06.114-.05.17-.188.17-.414v-1.382c0-.407.114-.698.342-.874.209-.158.53-.237.967-.237h1.43c.231 0 .39.076.476.23.06.109.092.28.092.515v2.188c.332 0 .498.156.498.468v.684c0 .357-.178.535-.534.535-.199 0-.32-.11-.362-.331-.015-.06-.022-.24-.022-.543zm2.342-1.546a.653.653 0 00.277.488c.16.113.357.17.59.17.194 0 .429-.06.704-.18.275-.12.445-.18.512-.18.303 0 .455.143.455.428a.525.525 0 01-.128.325c-.152.199-.394.35-.725.454-.28.09-.572.135-.875.135-.569 0-1.043-.186-1.422-.559a1.857 1.857 0 01-.569-1.378c0-.543.182-1.006.544-1.39.363-.383.826-.575 1.39-.575.28 0 .533.05.76.149.328.144.596.359.804.643.209.285.313.595.313.928 0 .181-.069.32-.206.414a.782.782 0 01-.47.128h-1.954zm-.015-.718h1.515a.663.663 0 00-.231-.467.747.747 0 00-.509-.183.75.75 0 00-.511.18.81.81 0 00-.264.47zm3.94-.541h-.49c-.478 0-.718-.158-.718-.471 0-.314.24-.471.718-.471h2.12c.483 0 .724.157.724.47 0 .314-.242.471-.73.471h-.492v2.06c0 .533-.189.8-.565.8-.378 0-.566-.267-.566-.8v-2.06zm2.498.955c0-.574.18-1.042.54-1.406.361-.364.84-.546 1.437-.546.313 0 .585.046.818.136.313.126.47.316.47.57a.462.462 0 01-.477.468 1.02 1.02 0 01-.352-.086 1.25 1.25 0 00-.459-.085c-.26 0-.462.095-.605.285a1.047 1.047 0 00-.191.643c0 .271.066.488.199.65.151.182.365.272.64.272.16 0 .31-.027.448-.081a.978.978 0 01.341-.082c.133 0 .24.047.323.14a.485.485 0 01.125.334c0 .222-.161.41-.483.563-.233.108-.522.163-.868.163-.578 0-1.043-.188-1.393-.563-.342-.361-.513-.82-.513-1.375zm5.15.325l-.17.122v.653c0 .536-.19.804-.57.804-.383 0-.575-.267-.575-.8v-2.2c0-.535.192-.801.575-.801.29 0 .468.156.534.467.024.095.035.357.035.786l.982-.956c.203-.198.4-.297.59-.297.133 0 .246.038.341.115a.372.372 0 01.142.305c0 .18-.097.357-.291.528l-.775.685 1.074 1.199c.151.171.227.35.227.535a.37.37 0 01-.167.315.631.631 0 01-.373.119c-.228 0-.427-.109-.598-.327l-.98-1.252zm3.636-.21l1.379-1.22c0-.252.028-.435.085-.548.085-.163.246-.244.483-.244.238 0 .399.081.484.244.057.114.085.297.085.55v2.206c0 .253-.028.436-.085.55-.084.167-.244.25-.48.25s-.396-.083-.48-.251c-.057-.113-.085-.297-.085-.552V31.46l-1.383 1.073c0 .25-.029.434-.085.552-.087.168-.246.252-.48.252-.39 0-.584-.267-.584-.8V30.33c0-.244.031-.425.093-.543.09-.168.254-.251.49-.251.233 0 .392.081.477.244.057.113.086.296.086.548v1.22zm3.18.988V30.33c0-.244.03-.425.092-.543.09-.168.254-.251.49-.251.232 0 .392.081.477.244.057.113.085.296.085.548v1.22l1.38-1.673c.184-.227.374-.34.568-.34.237 0 .399.082.484.245.057.114.085.297.085.55v2.206c0 .253-.028.436-.085.55-.084.167-.244.25-.48.25s-.396-.083-.48-.251c-.057-.113-.085-.297-.085-.552v-1.12l-1.383 1.59c-.196.223-.383.334-.564.334-.39 0-.585-.267-.585-.8zm1.834-3.319c-.323 0-.588-.079-.796-.237-.195-.144-.292-.305-.292-.481 0-.23.114-.345.341-.345.128 0 .241.067.338.203a.474.474 0 00.409.203c.185 0 .322-.068.412-.203.09-.136.197-.203.32-.203.233 0 .348.115.348.345 0 .23-.125.414-.376.549-.209.113-.443.17-.704.17zm6.067 3.252h1.258v-2.134c0-.533.188-.8.566-.8.376 0 .565.267.565.8v2.134c.332 0 .497.156.497.468v.684c0 .357-.177.535-.533.535-.199 0-.32-.11-.362-.331-.015-.06-.022-.24-.022-.543h-2.389a.633.633 0 01-.533-.25.893.893 0 01-.178-.563v-2.134c0-.533.189-.8.565-.8.377 0 .566.267.566.8v2.134zm4.275-.732a.653.653 0 00.277.488c.161.113.358.17.59.17.194 0 .43-.06.704-.18.275-.12.445-.18.512-.18.303 0 .455.143.455.428a.525.525 0 01-.128.325c-.152.199-.394.35-.725.454-.28.09-.571.135-.875.135-.569 0-1.042-.186-1.422-.559a1.857 1.857 0 01-.569-1.378c0-.543.182-1.006.544-1.39.363-.383.826-.575 1.39-.575a1.886 1.886 0 011.564.792c.21.285.313.595.313.928a.47.47 0 01-.206.414.782.782 0 01-.47.128h-1.954zm-.014-.718h1.514a.661.661 0 00-.231-.467.746.746 0 00-.508-.183.75.75 0 00-.512.18.808.808 0 00-.263.47zm4.332.76v.754c0 .536-.188.804-.562.804-.389 0-.583-.267-.583-.8V30.33c0-.53.194-.794.583-.794.374 0 .562.264.562.792v.678h1.265v-.678c0-.528.188-.792.565-.792.377 0 .566.264.566.794v2.206c0 .534-.189.8-.566.8-.377 0-.565-.267-.565-.803v-.755h-1.265zm3.933-1.302h-.49c-.48 0-.718-.157-.718-.47 0-.314.239-.471.718-.471h2.118c.484 0 .725.157.725.47 0 .314-.242.471-.73.471h-.492v2.06c0 .533-.189.8-.565.8-.377 0-.566-.267-.566-.8v-2.06zm3.863 2.602h-.028v.949c0 .524-.183.786-.548.786-.389 0-.583-.267-.583-.8v-3.686c0-.528.194-.792.583-.792.228 0 .41.115.548.345.232-.248.547-.372.945-.372.531 0 .962.198 1.294.596.303.37.456.813.456 1.328 0 .384-.093.736-.278 1.057a1.76 1.76 0 01-.803.752 1.573 1.573 0 01-.683.156c-.346 0-.647-.107-.903-.319zm-.028-1.579c0 .25.059.452.178.61.138.18.333.271.586.271a.67.67 0 00.585-.298c.12-.176.18-.388.18-.637a1.03 1.03 0 00-.187-.623.663.663 0 00-.578-.298c-.21 0-.39.067-.54.2-.15.133-.224.392-.224.775zm6.308-.067c0-.24.183-.36.547-.36.256 0 .422-.013.498-.04.147-.05.22-.174.22-.373 0-.198-.061-.334-.184-.406-.09-.05-.242-.075-.455-.075-.166 0-.334.03-.505.088a1.44 1.44 0 01-.42.095c-.28 0-.42-.124-.42-.372 0-.348.477-.522 1.43-.522.53 0 .927.072 1.187.217.341.185.512.51.512.976 0 .316-.159.555-.476.718.379.194.568.467.568.82 0 .794-.597 1.192-1.791 1.192-1.02 0-1.529-.188-1.529-.563 0-.23.133-.345.398-.345.081 0 .228.034.441.102.213.067.444.101.69.101.407 0 .611-.162.611-.487 0-.15-.038-.256-.113-.319-.076-.063-.225-.097-.448-.102-.275-.004-.446-.015-.512-.034-.166-.04-.25-.144-.25-.311zm4.282 1.036h1.237v-2.06h-.859c-.177 0-.265.084-.265.252v1.368c0 .14-.037.287-.113.44zm1.948.813h-2.616c0 .317-.005.5-.015.55-.043.216-.165.325-.369.325-.356 0-.534-.179-.534-.536v-.698c0-.23.057-.37.171-.42a5.81 5.81 0 01.306-.06c.114-.05.17-.188.17-.414v-1.382c0-.407.114-.698.342-.874.208-.158.53-.237.967-.237h1.429c.232 0 .391.076.476.23.061.109.092.28.092.515v2.188c.332 0 .498.156.498.468v.684c0 .357-.177.535-.533.535-.199 0-.32-.11-.363-.331-.014-.06-.021-.24-.021-.543zm1.161-1.85c0-.555.181-1.021.544-1.398.362-.378.83-.566 1.404-.566.583 0 1.052.187 1.408.562.355.375.533.843.533 1.403 0 .555-.175 1.018-.526 1.389-.365.38-.837.569-1.415.569-.574 0-1.045-.192-1.415-.576-.355-.37-.533-.83-.533-1.382zm1.187-.013c0 .249.059.465.178.65a.663.663 0 00.583.326.664.664 0 00.583-.326c.119-.185.177-.401.177-.65 0-.244-.061-.456-.184-.637a.664.664 0 00-.576-.311.67.67 0 00-.583.311 1.11 1.11 0 00-.178.637zm4.46 1.66h-.029v.949c0 .524-.182.786-.547.786-.389 0-.583-.267-.583-.8v-3.686c0-.528.194-.792.583-.792.228 0 .41.115.547.345.233-.248.548-.372.946-.372.531 0 .962.198 1.294.596.303.37.455.813.455 1.328 0 .384-.092.736-.277 1.057a1.76 1.76 0 01-.803.752 1.576 1.576 0 01-.683.156c-.346 0-.647-.107-.903-.319zm-.029-1.579c0 .25.06.452.179.61.138.18.334.271.586.271a.668.668 0 00.585-.298c.12-.176.179-.388.179-.637 0-.244-.061-.451-.186-.623a.663.663 0 00-.578-.298c-.21 0-.39.067-.539.2-.151.133-.226.392-.226.775zm3.081-.067c0-.556.181-1.022.544-1.4.362-.377.83-.565 1.404-.565.583 0 1.052.187 1.408.562.355.375.533.843.533 1.403 0 .555-.175 1.018-.526 1.389-.365.38-.837.569-1.415.569-.574 0-1.045-.192-1.415-.576-.355-.37-.533-.83-.533-1.382zm1.187-.014c0 .249.059.465.178.65a.664.664 0 00.583.326.663.663 0 00.583-.326c.119-.185.178-.401.178-.65 0-.244-.062-.456-.185-.637a.664.664 0 00-.576-.311.67.67 0 00-.583.311 1.11 1.11 0 00-.178.637zm4.446-1.179v.834h.462c.185 0 .32-.023.405-.068.114-.063.171-.178.171-.346 0-.28-.206-.42-.618-.42h-.42zm-.49 3.083c-.437 0-.655-.237-.655-.712v-2.37c0-.47.218-.705.655-.705h1.03c.517 0 .899.065 1.145.196.332.172.498.481.498.928 0 .317-.159.556-.477.719.394.198.59.472.59.82 0 .451-.177.763-.533.934-.256.127-.647.19-1.173.19h-1.08zm.49-1.545v.834h.462c.436 0 .654-.138.654-.413 0-.177-.069-.296-.206-.36-.09-.04-.239-.06-.448-.06h-.462zm4.076-.752c.654 0 1.067.014 1.237.04.522.078.846.274.974.59.057.14.086.308.086.502 0 .451-.178.763-.534.935-.256.126-.647.19-1.173.19h-1.081c-.436 0-.654-.238-.654-.712v-2.33c0-.47.192-.705.576-.705.379 0 .569.234.569.704v.786zm0 .712v.833h.462c.436 0 .654-.138.654-.413 0-.177-.069-.296-.206-.36-.09-.04-.239-.06-.448-.06h-.462zm5.071.047h-.256l-1.038 1.293a.809.809 0 01-.206.198.585.585 0 01-.291.06.496.496 0 01-.367-.138c-.092-.093-.138-.179-.138-.255 0-.154.059-.296.178-.427l.725-.795c-.588-.118-.882-.47-.882-1.058 0-.751.545-1.127 1.635-1.127h1.131c.261 0 .438.056.533.17.081.099.121.277.121.534v2.384c0 .475-.192.713-.576.713a.493.493 0 01-.44-.225.855.855 0 01-.129-.49v-.837zm0-.704v-.84h-.459c-.433 0-.65.14-.65.42 0 .28.217.42.65.42h.459z" fill="#2B3998"/></g><mask id="b" style="mask-type:luminance" maskUnits="userSpaceOnUse" x="-42" y="-66" width="258" height="176"><path d="M-42-66h258v175.946H-42V-66z" fill="#fff"/></mask><g mask="url(#b)"><path d="M28.603 26.654a.517.517 0 01-.487-.33c-.017-.045-1.734-4.568-4.403-7.866-.645-.796-1.28-1.157-1.884-1.078-1.275.17-2.393 2.182-2.716 2.943a.525.525 0 01-.675.273.493.493 0 01-.283-.65c.141-.334 1.442-3.274 3.531-3.554.997-.133 1.954.355 2.842 1.452 2.773 3.425 4.49 7.95 4.561 8.14a.494.494 0 01-.31.64.531.531 0 01-.176.03z" fill="#A7A5A6"/><path d="M18.95 18.792c.197.09.394.182.59.274.41.235.351.548.17.876-.219.394-.442.766-.457 1.241-.01.366-.425.58-.808.565-.434-.019-.849-.23-1.042-.598-.197-.374-.143-.807.207-1.088.31-.247.53-.515.667-.853.115-.285.361-.393.672-.417z" fill="#2B3B92"/><path d="M19.576 26.786a.54.54 0 01-.14-.019.497.497 0 01-.358-.615c.052-.177 1.3-4.382 4.413-8.557.818-1.098 1.715-1.598 2.669-1.478 2.098.257 3.455 3.485 3.602 3.851a.493.493 0 01-.294.646.523.523 0 01-.67-.284c-.34-.845-1.503-3.069-2.769-3.224-.55-.068-1.119.294-1.698 1.07-3.007 4.035-4.245 8.205-4.258 8.246a.515.515 0 01-.497.364z" fill="#A7A5A6"/><path d="M28.823 18.455l-.572.33c-.392.273-.312.579-.107.889.246.371.495.72.543 1.193.037.363.466.537.848.485.433-.06.832-.31.999-.694.17-.392.086-.819-.284-1.065-.326-.217-.566-.463-.726-.786-.135-.274-.389-.357-.701-.352zm-2.471 11.63c-.238 1.207-1.446 2-2.697 1.77-1.252-.23-2.073-1.394-1.835-2.601s1.445-2 2.697-1.77c1.251.23 2.073 1.394 1.835 2.601z" fill="#2B3B92"/><path d="M20.242 33.336c-.029 0-.058-.002-.088-.004-2.6-.211-4.778-1.32-6.3-3.208-1.832-2.275-2.59-5.58-2.026-8.84.06-.351.099-.708.139-1.086.062-.584.126-1.185.281-1.791-1.915-.628-3.26-2.402-3.26-4.38 0-2.548 2.15-4.621 4.793-4.621 1.65 0 3.156.805 4.034 2.13a12.123 12.123 0 015.803-1.472c2.037 0 4.034.508 5.802 1.472.88-1.325 2.385-2.13 4.035-2.13 2.642 0 4.793 2.073 4.793 4.622 0 1.976-1.344 3.75-3.257 4.378.233.866.314 1.736.392 2.582l.035.368a8.778 8.778 0 01-2.527 7.086c-1.88 1.876-4.46 2.826-7.269 2.664-.57-.032-1.005-.504-.972-1.054.033-.55.523-.974 1.092-.938 2.195.126 4.208-.607 5.66-2.058 1.443-1.44 2.156-3.45 1.956-5.515l-.035-.375c-.086-.92-.166-1.788-.431-2.582a1.511 1.511 0 01.132-1.246 1.617 1.617 0 011.041-.75c1.226-.272 2.114-1.349 2.114-2.56 0-1.449-1.222-2.627-2.724-2.627a2.73 2.73 0 00-2.43 1.443c-.204.388-.57.677-1.005.795a1.689 1.689 0 01-1.285-.175 9.986 9.986 0 00-5.117-1.405 9.987 9.987 0 00-5.117 1.404 1.68 1.68 0 01-1.285.176 1.61 1.61 0 01-1.005-.795 2.73 2.73 0 00-2.43-1.443c-1.502 0-2.724 1.178-2.724 2.627 0 1.211.888 2.287 2.111 2.56.44.098.821.37 1.043.75.222.374.271.829.134 1.244-.186.556-.251 1.17-.32 1.82-.042.392-.085.797-.156 1.211-.471 2.72.134 5.444 1.619 7.286 1.174 1.457 2.802 2.28 4.84 2.445.57.046.992.529.944 1.078-.045.52-.498.914-1.03.914z" fill="#2B3B92"/><path d="M28.054 28.663a6.946 6.946 0 001.996-.808 8.32 8.32 0 00-.269-1.231c-.158-.53-.73-.835-1.28-.683-.549.153-.866.706-.708 1.235.156.525.243 1.021.26 1.487zm-.944 2.648a3.69 3.69 0 01-.77.594c-1.708 1-4.183.82-5.517-.402-1.397-1.28-1.341-3.46.155-6.143a.98.98 0 00-.42-1.351 1.055 1.055 0 00-1.401.406c-2.772 4.966-.755 7.623.242 8.535 1.144 1.048 2.784 1.59 4.447 1.59 1.244 0 2.5-.304 3.567-.93 1.183-.692 1.995-1.688 2.404-2.882a9.901 9.901 0 01-2.708.583z" fill="#2B3B92"/></g></g><defs><clipPath id="clip0_86_265"><path fill="#fff" d="M0 0h139v45H0z"/></clipPath></defs></svg>