<svg width="23" height="23" fill="none" xmlns="http://www.w3.org/2000/svg"><path d="M10.444.067A8.714 8.714 0 005.41 2.534a8.57 8.57 0 00-2.467 5.103c-.12 1.028-.062 1.945.198 3.032.768 3.18 3.27 7.133 7.066 11.163C11.186 22.87 11.33 23 11.505 23c.17 0 .435-.247 1.477-1.37 4.183-4.51 6.644-8.697 7.076-12.03.328-2.538-.602-5.193-2.471-7.066C16.302 1.249 14.725.436 12.87.112 12.3.01 11.055-.013 10.444.067zm2.022 4.73c1.46.4 2.489 1.438 2.88 2.912.12.462.116 1.401-.014 1.882-.265.975-.858 1.81-1.658 2.327-2.56 1.657-5.916-.027-6.114-3.064A3.91 3.91 0 018.715 5.84a3.904 3.904 0 012.089-1.105c.422-.081 1.249-.05 1.662.063z" fill="#EC008C"/></svg>