<svg width="60" height="17" fill="none" xmlns="http://www.w3.org/2000/svg"><g clip-path="url(#clip0_86_207)"><path d="M57.204 14.803c1.178 0 2.011-.209 2.633-.658v-2.037c-.638.433-1.407.706-2.486.706-1.814 0-2.566-1.38-2.566-3.56 0-2.294.915-3.464 2.583-3.464.98 0 1.945.336 2.452.657V4.33c-.54-.288-1.471-.497-2.746-.497-3.254 0-4.938 2.293-4.938 5.5.017 3.513 1.668 5.47 5.068 5.47zm-15.907-.93v-2.037c-.785.53-2.125.994-3.351.994-1.864 0-2.567-.866-2.682-2.63h6.147V8.885c0-3.673-1.65-5.052-4.185-5.052-3.106 0-4.578 2.325-4.578 5.517 0 3.673 1.848 5.453 5.085 5.453 1.619 0 2.812-.433 3.564-.93zm-23.33-9.848v4.17h-3.4v-4.17h-2.55v10.57h2.55v-4.411h3.4v4.41h2.55V4.025h-2.55zm14.044 8.58h-1.128v-8.58H23.46v.899c0 2.582-.164 5.917-1.063 7.682h-.818V17h2.355v-2.406h5.705V17h2.355v-4.394h.016zm17.411 1.99h2.894L48.23 8.9l3.597-4.876H49.26L45.663 8.9V4.025h-2.55v10.57h2.55V9.397l3.76 5.196zM37.161 5.79c1.259 0 1.651 1.026 1.651 2.357v.209h-3.548c.066-1.684.687-2.566 1.897-2.566zm-8.829 6.816h-3.596c.703-1.588.899-4.475.899-6.303v-.32h2.697v6.623z" fill="#000"/><path d="M9.891 14.594h-2.6V1.973h-1.16c-2.126 0-3.237 1.042-3.237 2.598 0 1.764.768 2.582 2.354 3.624l1.308.866-3.76 5.533H0l3.384-4.94C1.44 8.293.344 6.96.344 4.716.343 1.908 2.337 0 6.113 0h3.76v14.594h.017z" fill="#FC3F1D"/></g><defs><clipPath id="clip0_86_207"><path fill="#fff" d="M0 0h60v17H0z"/></clipPath></defs></svg>