<svg width="119" height="119" fill="none" xmlns="http://www.w3.org/2000/svg"><circle cx="59.563" cy="59.563" r="59.437" fill="red"/><g clip-path="url(#clip0_86_307)"><g clip-path="url(#clip1_86_307)"><path d="M87.003 46.681c-.65-2.382-2.557-4.255-4.983-4.893-4.393-1.157-22.017-1.157-22.017-1.157s-17.623 0-22.017 1.157c-2.426.638-4.332 2.51-4.982 4.894-1.178 4.314-1.178 13.321-1.178 13.321s0 9.007 1.178 13.322c.65 2.383 2.556 4.255 4.982 4.893 4.394 1.157 22.017 1.157 22.017 1.157s17.624 0 22.017-1.157c2.426-.638 4.333-2.51 4.983-4.893 1.178-4.315 1.178-13.322 1.178-13.322s-.005-9.007-1.178-13.322z" fill="#fff"/><path d="M54.362 68.305l14.641-8.301-14.64-8.301v16.602z" fill="#FC3F1D"/></g></g><defs><clipPath id="clip0_86_307"><path fill="#fff" transform="translate(31.826 40.631)" d="M0 0h56.355v38.744H0z"/></clipPath><clipPath id="clip1_86_307"><path fill="#fff" transform="translate(31.826 40.631)" d="M0 0h56.355v38.744H0z"/></clipPath></defs></svg>